
<svg width="330px" height="320px" viewBox="0 0 330 320" version="1.1" xmlns="http://www.w3.org/2000/svg" xmlns:xlink="http://www.w3.org/1999/xlink">
    <!-- Generator: Sketch 49.3 (51167) - http://www.bohemiancoding.com/sketch -->
    <desc>Created with Sketch.</desc>
    <defs>
        <circle id="path-1" cx="4" cy="51" r="4"></circle>
        <circle id="path-2" cx="4" cy="51" r="4"></circle>
        <circle id="path-3" cx="4" cy="51" r="4"></circle>
        <circle id="path-4" cx="4" cy="51" r="4"></circle>
        <rect id="path-5" x="5" y="67" width="221" height="221"></rect>
        <circle id="path-6" cx="4" cy="51" r="4"></circle>
    </defs>
    <g id="Page-1" stroke="none" stroke-width="1" fill="none" fill-rule="evenodd">
        <g id="Mobile---SVG-OUTPUT" transform="translate(-84.000000, -425.000000)">
            <g id="Group-4" transform="translate(85.000000, 425.000000)">
                <g id="Group-4-Copy-7" transform="translate(268.000000, 204.500000) scale(1, -1) translate(-268.000000, -204.500000) translate(208.000000, 177.000000)">
                    <g id="Oval-3-Copy">
                        <use fill-opacity="0.6622226" fill="#223569" fill-rule="evenodd" xlink:href="#path-1"></use>
                        <circle stroke="#47CCFF" stroke-width="1" cx="4" cy="51" r="3.5"></circle>
                    </g>
                    <polyline id="Line-3" stroke-opacity="0.41" stroke="#47CCFF" stroke-linecap="square" points="8 51 49.2556488 51 80.0588235 1.34837877e-13 120 1.54317934e-13"></polyline>
                </g>
                <g id="Group-4-Copy-8" transform="translate(268.000000, 232.500000) scale(1, -1) translate(-268.000000, -232.500000) translate(208.000000, 205.000000)">
                    <g id="Oval-3-Copy">
                        <use fill-opacity="0.6622226" fill="#223569" fill-rule="evenodd" xlink:href="#path-2"></use>
                        <circle stroke="#47CCFF" stroke-width="1" cx="4" cy="51" r="3.5"></circle>
                    </g>
                    <polyline id="Line-3" stroke-opacity="0.41" stroke="#47CCFF" stroke-linecap="square" points="8 51 49.2556488 51 80.0588235 1.34837877e-13 120 1.54317934e-13"></polyline>
                </g>
                <g id="Group-4-Copy-10" transform="translate(268.000000, 263.500000) scale(1, -1) translate(-268.000000, -263.500000) translate(208.000000, 236.000000)">
                    <g id="Oval-3-Copy">
                        <use fill-opacity="0.6622226" fill="#223569" fill-rule="evenodd" xlink:href="#path-3"></use>
                        <circle stroke="#47CCFF" stroke-width="1" cx="4" cy="51" r="3.5"></circle>
                    </g>
                    <polyline id="Line-3" stroke-opacity="0.41" stroke="#47CCFF" stroke-linecap="square" points="8 51 49.2556488 51 80.0588235 1.34837877e-13 120 1.54317934e-13"></polyline>
                </g>
                <g id="Group-4-Copy-9" transform="translate(268.000000, 291.500000) scale(1, -1) translate(-268.000000, -291.500000) translate(208.000000, 264.000000)">
                    <g id="Oval-3-Copy">
                        <use fill-opacity="0.6622226" fill="#223569" fill-rule="evenodd" xlink:href="#path-4"></use>
                        <circle stroke="#47CCFF" stroke-width="1" cx="4" cy="51" r="3.5"></circle>
                    </g>
                    <polyline id="Line-3" stroke-opacity="0.41" stroke="#47CCFF" stroke-linecap="square" points="8 51 49.2556488 51 80.0588235 1.34837877e-13 120 1.54317934e-13"></polyline>
                </g>
                <g id="Rectangle-12">
                    <use fill-opacity="0.351704031" fill="#223569" fill-rule="evenodd" xlink:href="#path-5"></use>
                    <rect stroke-opacity="0.412081069" stroke="#47CCFF" stroke-width="1" x="5.5" y="67.5" width="220" height="220"></rect>
                </g>
                <g id="Group-4-Copy-5" transform="translate(206.250000, 32.500000)">
                    <g id="Oval-3-Copy">
                        <use fill-opacity="0.6622226" fill="#223569" fill-rule="evenodd" xlink:href="#path-6"></use>
                        <circle stroke="#47CCFF" stroke-width="1" cx="4" cy="51" r="3.5"></circle>
                    </g>
                    <polyline id="Line-3" stroke-opacity="0.41" stroke="#47CCFF" stroke-linecap="square" points="8 51 53.3389288 51 87.1908493 1.34837877e-13 131.085206 1.54317934e-13"></polyline>
                </g>
                <g id="Group-7-Copy" transform="translate(37.750000, 44.500000) rotate(-90.000000) translate(-37.750000, -44.500000) translate(-6.250000, 7.000000)" stroke="#979797">
                    <g id="Group-4-Copy" transform="translate(0.000000, 45.456691)">
                        <circle id="Oval" stroke-width="3" cx="3.5" cy="25.0447455" r="3.5"></circle>
                        <polyline id="Line-3" stroke-linecap="square" points="7 25.5447455 36.6904164 25.5447455 58.8585099 6.75372403e-14 87.6029412 7.729436e-14"></polyline>
                    </g>
                    <g id="Group-4-Copy-2" transform="translate(0.000000, 22.038793)">
                        <circle id="Oval" stroke-width="3" cx="3.5" cy="25.0447455" r="3.5"></circle>
                        <polyline id="Line-3" stroke-linecap="square" points="7 25.5447455 36.6904164 25.5447455 58.8585099 6.75372403e-14 87.6029412 7.729436e-14"></polyline>
                    </g>
                    <g id="Group-4-Copy-3">
                        <circle id="Oval" stroke-width="3" cx="3.5" cy="25.0447455" r="3.5"></circle>
                        <polyline id="Line-3" stroke-linecap="square" points="7 25.5447455 36.6904164 25.5447455 58.8585099 6.75372403e-14 87.6029412 7.729436e-14"></polyline>
                    </g>
                </g>
                <path d="M27.7999992,207.000008 L28.5999985,207.000008 L28.5999985,209.940005 C28.5999985,210.200005 28.6599984,210.450004 28.8199983,210.630004 L31.7999954,214.240001 L34.7799926,210.630004 C34.9399924,210.440004 34.9999924,210.190005 34.9999924,209.940005 L34.9999924,207.000008 L35.7999916,207.000008 L35.7999916,209.940005 C35.7999916,210.350004 35.6899917,210.780004 35.439992,211.090004 L32.239995,215 L31.3599958,215 L28.1599989,211.090004 C27.9099991,210.780004 27.7999992,210.350004 27.7999992,209.940005 L27.7999992,207.000008 Z M38.7333332,215 L38.7333332,214.200001 L40.7333313,214.200001 L40.7333313,207.800007 L38.7333332,207.800007 L38.7333332,207.000008 L43.5333287,207.000008 L43.5333287,207.800007 L41.5333306,207.800007 L41.5333306,214.200001 L43.5333287,214.200001 L43.5333287,215 L38.7333332,215 Z M48.4666653,211.400003 C47.3666664,211.400003 46.4666672,210.500004 46.4666672,209.400005 L46.4666672,209.000006 C46.4666672,207.900007 47.3666664,207.000008 48.4666653,207.000008 L52.4666615,207.000008 C53.5666605,207.000008 54.4666596,207.900007 54.4666596,209.000006 L54.4666596,209.400005 L53.6666604,209.400005 L53.6666604,209.000006 C53.6666604,208.340006 53.1266609,207.800007 52.4666615,207.800007 L48.4666653,207.800007 C47.806666,207.800007 47.2666665,208.340006 47.2666665,209.000006 L47.2666665,209.400005 C47.2666665,210.060005 47.806666,210.600004 48.4666653,210.600004 L52.4666615,210.600004 C53.5666605,210.600004 54.4666596,211.500003 54.4666596,212.600002 L54.4666596,213.000002 C54.4666596,214.100001 53.5666605,215 52.4666615,215 L48.4666653,215 C47.3666664,215 46.4666672,214.100001 46.4666672,213.000002 L46.4666672,212.600002 L47.2666665,212.600002 L47.2666665,213.000002 C47.2666665,213.660001 47.806666,214.200001 48.4666653,214.200001 L52.4666615,214.200001 C53.1266609,214.200001 53.6666604,213.660001 53.6666604,213.000002 L53.6666604,212.600002 C53.6666604,211.940003 53.1266609,211.400003 52.4666615,211.400003 L48.4666653,211.400003 Z M58.2000005,207.000008 L58.2000005,213.000002 C58.2000005,213.660001 58.74,214.200001 59.3999993,214.200001 L63.3999955,214.200001 C64.0599949,214.200001 64.5999944,213.660001 64.5999944,213.000002 L64.5999944,207.000008 L65.3999936,207.000008 L65.3999936,213.000002 C65.3999936,214.100001 64.4999945,215 63.3999955,215 L59.3999993,215 C58.3000004,215 57.4000012,214.100001 57.4000012,213.000002 L57.4000012,207.000008 L58.2000005,207.000008 Z M68.3333352,215 L68.3333352,211.860003 C68.3333352,211.450003 68.4633351,211.040004 68.6933349,210.710004 L70.693333,207.850007 C71.0833326,207.300007 71.713332,207.000008 72.3333314,207.000008 C72.9533308,207.000008 73.5833302,207.300007 73.9733299,207.850007 L75.973328,210.710004 C76.2033277,211.030004 76.3333276,211.440003 76.3333276,211.860003 L76.3333276,215 L75.5333284,215 L75.5333284,212.600002 L69.1333345,212.600002 L69.1333345,215 L68.3333352,215 Z M72.3333314,207.800007 C71.7833319,207.800007 71.4633323,208.150007 71.3233324,208.350006 L69.3533343,211.170004 C69.2033344,211.380003 69.1433345,211.610003 69.1333345,211.800003 L75.5333284,211.800003 C75.5233284,211.610003 75.4633284,211.380003 75.3133286,211.170004 L73.3433305,208.350006 C73.2033306,208.160007 72.8833309,207.800007 72.3333314,207.800007 Z M79.2666692,207.000008 L80.0666685,207.000008 L80.0666685,213.000002 C80.0666685,213.660001 80.606668,214.200001 81.2666673,214.200001 L87.2666616,214.200001 L87.2666616,215 L81.2666673,215 C80.1666684,215 79.2666692,214.100001 79.2666692,213.000002 L79.2666692,207.000008 Z M27.7999992,229 L27.7999992,221.000008 L35.7999916,221.000008 L35.7999916,221.800007 L28.5999985,221.800007 L28.5999985,224.600004 L34.1999931,224.600004 L34.1999931,225.400003 L28.5999985,225.400003 L28.5999985,228.200001 L35.7999916,228.200001 L35.7999916,229 L27.7999992,229 Z M38.7333332,229 L38.7333332,221.000008 L46.7333256,221.000008 L46.7333256,221.800007 L39.5333325,221.800007 L39.5333325,224.600004 L45.1333271,224.600004 L45.1333271,225.400003 L39.5333325,225.400003 L39.5333325,229 L38.7333332,229 Z M49.6666672,229 L49.6666672,221.000008 L57.6666596,221.000008 L57.6666596,221.800007 L50.4666665,221.800007 L50.4666665,224.600004 L56.0666611,224.600004 L56.0666611,225.400003 L50.4666665,225.400003 L50.4666665,229 L49.6666672,229 Z M60.6000012,229 L60.6000012,221.000008 L68.5999936,221.000008 L68.5999936,221.800007 L61.4000005,221.800007 L61.4000005,224.600004 L66.9999951,224.600004 L66.9999951,225.400003 L61.4000005,225.400003 L61.4000005,228.200001 L68.5999936,228.200001 L68.5999936,229 L60.6000012,229 Z M79.5333276,221.000008 L79.5333276,221.800007 L73.5333333,221.800007 C72.873334,221.800007 72.3333345,222.340006 72.3333345,223.000006 L72.3333345,227.000002 C72.3333345,227.660001 72.873334,228.200001 73.5333333,228.200001 L79.5333276,228.200001 L79.5333276,229 L73.5333333,229 C72.4333344,229 71.5333352,228.100001 71.5333352,227.000002 L71.5333352,223.000006 C71.5333352,221.900007 72.4333344,221.000008 73.5333333,221.000008 L79.5333276,221.000008 Z M82.4666692,221.000008 L90.4666616,221.000008 L90.4666616,221.800007 L86.866665,221.800007 L86.866665,229 L86.0666658,229 L86.0666658,221.800007 L82.4666692,221.800007 L82.4666692,221.000008 Z M27.7999992,243 L27.7999992,235.000008 L28.5999985,235.000008 L28.5999985,242.200001 L35.7999916,242.200001 L35.7999916,243 L27.7999992,243 Z M38.7333332,243 L38.7333332,237.000006 C38.7333332,235.900007 39.6333324,235.000008 40.7333313,235.000008 L44.7333275,235.000008 C45.8333265,235.000008 46.7333256,235.900007 46.7333256,237.000006 L46.7333256,243 L45.9333264,243 L45.9333264,239.400003 L39.5333325,239.400003 L39.5333325,243 L38.7333332,243 Z M39.5333325,238.600004 L45.9333264,238.600004 L45.9333264,237.000006 C45.9333264,236.340006 45.3933269,235.800007 44.7333275,235.800007 L40.7333313,235.800007 C40.073332,235.800007 39.5333325,236.340006 39.5333325,237.000006 L39.5333325,238.600004 Z M49.6666672,243 L49.6666672,235.000008 L50.4666665,235.000008 L56.8666604,241.770001 L56.8666604,235.000008 L57.6666596,235.000008 L57.6666596,243 L56.8666604,243 L50.4666665,236.230006 L50.4666665,243 L49.6666672,243 Z M68.5999936,235.000008 L68.5999936,235.800007 L62.5999993,235.800007 C61.94,235.800007 61.4000005,236.340006 61.4000005,237.000006 L61.4000005,241.000002 C61.4000005,241.660001 61.94,242.200001 62.5999993,242.200001 L67.7999944,242.200001 L67.7999944,239.400003 L63.7999982,239.400003 L63.7999982,238.600004 L68.5999936,238.600004 L68.5999936,243 L62.5999993,243 C61.5000004,243 60.6000012,242.100001 60.6000012,241.000002 L60.6000012,237.000006 C60.6000012,235.900007 61.5000004,235.000008 62.5999993,235.000008 L68.5999936,235.000008 Z M71.5333352,235.000008 L72.3333345,235.000008 L72.3333345,241.000002 C72.3333345,241.660001 72.873334,242.200001 73.5333333,242.200001 L77.5333295,242.200001 C78.1933289,242.200001 78.7333284,241.660001 78.7333284,241.000002 L78.7333284,235.000008 L79.5333276,235.000008 L79.5333276,241.000002 C79.5333276,242.100001 78.6333285,243 77.5333295,243 L73.5333333,243 C72.4333344,243 71.5333352,242.100001 71.5333352,241.000002 L71.5333352,235.000008 Z M82.4666692,243 L82.4666692,237.000006 C82.4666692,235.900007 83.3666684,235.000008 84.4666673,235.000008 L88.4666635,235.000008 C89.5666625,235.000008 90.4666616,235.900007 90.4666616,237.000006 L90.4666616,243 L89.6666624,243 L89.6666624,239.400003 L83.2666685,239.400003 L83.2666685,243 L82.4666692,243 Z M83.2666685,238.600004 L89.6666624,238.600004 L89.6666624,237.000006 C89.6666624,236.340006 89.1266629,235.800007 88.4666635,235.800007 L84.4666673,235.800007 C83.806668,235.800007 83.2666685,236.340006 83.2666685,237.000006 L83.2666685,238.600004 Z M101.399996,235.000008 L101.399996,235.800007 L95.4000013,235.800007 C94.740002,235.800007 94.2000025,236.340006 94.2000025,237.000006 L94.2000025,241.000002 C94.2000025,241.660001 94.740002,242.200001 95.4000013,242.200001 L100.599996,242.200001 L100.599996,239.400003 L96.6000002,239.400003 L96.6000002,238.600004 L101.399996,238.600004 L101.399996,243 L95.4000013,243 C94.3000024,243 93.4000032,242.100001 93.4000032,241.000002 L93.4000032,237.000006 C93.4000032,235.900007 94.3000024,235.000008 95.4000013,235.000008 L101.399996,235.000008 Z M104.333337,243 L104.333337,235.000008 L112.33333,235.000008 L112.33333,235.800007 L105.133336,235.800007 L105.133336,238.600004 L110.733331,238.600004 L110.733331,239.400003 L105.133336,239.400003 L105.133336,242.200001 L112.33333,242.200001 L112.33333,243 L104.333337,243 Z M27.7999992,257 L27.7999992,251.000006 C27.7999992,249.900007 28.6999984,249.000008 29.7999973,249.000008 L33.7999935,249.000008 C34.8999925,249.000008 35.7999916,249.900007 35.7999916,251.000006 L35.7999916,257 L34.9999924,257 L34.9999924,253.400003 L28.5999985,253.400003 L28.5999985,257 L27.7999992,257 Z M28.5999985,252.600004 L34.9999924,252.600004 L34.9999924,251.000006 C34.9999924,250.340006 34.4599929,249.800007 33.7999935,249.800007 L29.7999973,249.800007 C29.139998,249.800007 28.5999985,250.340006 28.5999985,251.000006 L28.5999985,252.600004 Z M46.7333256,249.000008 L46.7333256,249.800007 L40.7333313,249.800007 C40.073332,249.800007 39.5333325,250.340006 39.5333325,251.000006 L39.5333325,255.000002 C39.5333325,255.660001 40.073332,256.200001 40.7333313,256.200001 L46.7333256,256.200001 L46.7333256,257 L40.7333313,257 C39.6333324,257 38.7333332,256.100001 38.7333332,255.000002 L38.7333332,251.000006 C38.7333332,249.900007 39.6333324,249.000008 40.7333313,249.000008 L46.7333256,249.000008 Z M49.6666672,257 L49.6666672,251.000006 C49.6666672,249.900007 50.5666664,249.000008 51.6666653,249.000008 L55.6666615,249.000008 C56.7666605,249.000008 57.6666596,249.900007 57.6666596,251.000006 L57.6666596,257 L56.8666604,257 L56.8666604,253.400003 L50.4666665,253.400003 L50.4666665,257 L49.6666672,257 Z M50.4666665,252.600004 L56.8666604,252.600004 L56.8666604,251.000006 C56.8666604,250.340006 56.3266609,249.800007 55.6666615,249.800007 L51.6666653,249.800007 C51.006666,249.800007 50.4666665,250.340006 50.4666665,251.000006 L50.4666665,252.600004 Z M60.6000012,257 L60.6000012,249.000008 L66.5999955,249.000008 C67.6999945,249.000008 68.5999936,249.900007 68.5999936,251.000006 L68.5999936,255.000002 C68.5999936,256.100001 67.6999945,257 66.5999955,257 L60.6000012,257 Z M61.4000005,256.200001 L66.5999955,256.200001 C67.2599949,256.200001 67.7999944,255.660001 67.7999944,255.000002 L67.7999944,251.000006 C67.7999944,250.340006 67.2599949,249.800007 66.5999955,249.800007 L61.4000005,249.800007 L61.4000005,256.200001 Z M71.5333352,257 L71.5333352,249.000008 L79.5333276,249.000008 L79.5333276,249.800007 L72.3333345,249.800007 L72.3333345,252.600004 L77.9333291,252.600004 L77.9333291,253.400003 L72.3333345,253.400003 L72.3333345,256.200001 L79.5333276,256.200001 L79.5333276,257 L71.5333352,257 Z M82.4666692,257 L82.4666692,249.000008 L83.2666685,249.000008 L86.4666654,253.140004 L89.6666624,249.000008 L90.4666616,249.000008 L90.4666616,257 L89.6666624,257 L89.6666624,250.580006 L86.8466651,254.070003 L86.0866658,254.070003 L83.2666685,250.580006 L83.2666685,257 L82.4666692,257 Z M93.4000032,249.000008 L94.2000025,249.000008 L94.2000025,250.200006 C94.2000025,250.680006 94.5000022,251.110006 94.9300018,251.290005 L97.3999994,252.710004 L99.8699971,251.290005 C100.299997,251.110006 100.599996,250.680006 100.599996,250.200006 L100.599996,249.000008 L101.399996,249.000008 L101.399996,250.200006 C101.399996,251.030006 100.889996,251.630005 100.379997,251.910005 L97.799999,253.420003 L97.799999,257 L96.9999998,257 L96.9999998,253.420003 L94.4200023,251.910005 C93.9100028,251.630005 93.4000032,251.030006 93.4000032,250.200006 L93.4000032,249.000008 Z" id="Visual-EFFECT-LANGUA" fill="#FFFFFF"></path>
            </g>
        </g>
    </g>
</svg>