
<svg width="297px" height="110px" viewBox="0 0 297 110" version="1.1" xmlns="http://www.w3.org/2000/svg" xmlns:xlink="http://www.w3.org/1999/xlink">
    <!-- Generator: Sketch 49.3 (51167) - http://www.bohemiancoding.com/sketch -->
    <desc>Created with Sketch.</desc>
    <defs>
        <linearGradient x1="50%" y1="5.36714234%" x2="50%" y2="100%" id="linearGradient-1">
            <stop stop-color="#3056E6" offset="0%"></stop>
            <stop stop-color="#26E8DF" offset="100%"></stop>
        </linearGradient>
        <rect id="path-2" x="0" y="0" width="153" height="25"></rect>
    </defs>
    <g id="Page-1" stroke="none" stroke-width="1" fill="none" fill-rule="evenodd">
        <g id="Mobile---SVG-OUTPUT" transform="translate(0.000000, -775.000000)">
            <g id="Group-3" transform="translate(-26.000000, 776.000000)">
                <g id="Group-7" transform="translate(62.000000, 53.500000) scale(-1, 1) translate(-62.000000, -53.500000) ">
                    <g id="Group-4-Copy" transform="translate(0.000000, 41.000000)">
                        <circle id="Oval" stroke="#979797" stroke-width="3" cx="3.5" cy="42.5" r="3.5"></circle>
                        <polyline id="Line-3" stroke="url(#linearGradient-1)" stroke-linecap="square" points="7 43 50.0974188 43 82.2757353 1.13686838e-13 124 1.301112e-13"></polyline>
                    </g>
                    <g id="Group-4-Copy-4" transform="translate(0.000000, 61.000000)">
                        <circle id="Oval" stroke="#979797" stroke-width="3" cx="3.5" cy="42.5" r="3.5"></circle>
                        <polyline id="Line-3" stroke="url(#linearGradient-1)" stroke-linecap="square" points="7 43 50.0974188 43 82.2757353 1.13686838e-13 124 1.301112e-13"></polyline>
                    </g>
                    <g id="Group-4-Copy-2" transform="translate(0.000000, 21.000000)">
                        <circle id="Oval" stroke="#979797" stroke-width="3" cx="3.5" cy="42.5" r="3.5"></circle>
                        <polyline id="Line-3" stroke="url(#linearGradient-1)" stroke-linecap="square" points="7 43 50.0974188 43 82.2757353 1.13686838e-13 124 1.301112e-13"></polyline>
                    </g>
                    <g id="Group-4-Copy-3">
                        <circle id="Oval" stroke="#979797" stroke-width="3" cx="3.5" cy="42.5" r="3.5"></circle>
                        <polyline id="Line-3" stroke="url(#linearGradient-1)" stroke-linecap="square" points="7 43 50.0974188 43 82.2757353 1.13686838e-13 124 1.301112e-13"></polyline>
                    </g>
                </g>
                <path d="M138.333323,39.0000076 L139.133322,39.0000076 L139.133322,45.4200015 L141.95332,41.9300048 L142.713319,41.9300048 L145.533316,45.4200015 L145.533316,39.0000076 L146.333316,39.0000076 L146.333316,47 L145.533316,47 L142.333319,42.8600039 L139.133322,47 L138.333323,47 L138.333323,39.0000076 Z M157.26665,39.8000069 L151.266655,39.8000069 C150.606656,39.8000069 150.066656,40.3400064 150.066656,41.0000057 L150.066656,42.6000042 L155.666651,42.6000042 L155.666651,43.4000034 L150.066656,43.4000034 L150.066656,45.0000019 C150.066656,45.6600013 150.606656,46.2000008 151.266655,46.2000008 L157.26665,46.2000008 L157.26665,47 L151.266655,47 C150.166656,47 149.266657,46.1000009 149.266657,45.0000019 L149.266657,41.0000057 C149.266657,39.9000068 150.166656,39.0000076 151.266655,39.0000076 L157.26665,39.0000076 L157.26665,39.8000069 Z M167.169985,43.0000038 C167.709984,43.2400036 168.199984,43.850003 168.199984,44.6000023 L168.199984,45.0000019 C168.199984,46.1000009 167.299984,47 166.199986,47 L160.199991,47 L160.199991,39.0000076 L166.199986,39.0000076 C167.299984,39.0000076 168.199984,39.9000068 168.199984,41.0000057 L168.199984,41.4000053 C168.199984,42.1500046 167.709984,42.760004 167.169985,43.0000038 Z M166.199986,43.4000034 L160.99999,43.4000034 L160.99999,46.2000008 L166.199986,46.2000008 C166.859985,46.2000008 167.399984,45.6600013 167.399984,45.0000019 L167.399984,44.6000023 C167.399984,43.9400029 166.859985,43.4000034 166.199986,43.4000034 Z M166.199986,39.8000069 L160.99999,39.8000069 L160.99999,42.6000042 L166.199986,42.6000042 C166.859985,42.6000042 167.399984,42.0500047 167.399984,41.4000053 L167.399984,41.0000057 C167.399984,40.3400064 166.859985,39.8000069 166.199986,39.8000069 Z M179.133318,39.0000076 L179.133318,39.8000069 L173.133323,39.8000069 C172.473324,39.8000069 171.933324,40.3400064 171.933324,41.0000057 L171.933324,45.0000019 C171.933324,45.6600013 172.473324,46.2000008 173.133323,46.2000008 L178.333318,46.2000008 L178.333318,43.4000034 L174.333322,43.4000034 L174.333322,42.6000042 L179.133318,42.6000042 L179.133318,47 L173.133323,47 C172.033324,47 171.133325,46.1000009 171.133325,45.0000019 L171.133325,41.0000057 C171.133325,39.9000068 172.033324,39.0000076 173.133323,39.0000076 L179.133318,39.0000076 Z M182.066659,47 L182.066659,39.0000076 L182.866658,39.0000076 L182.866658,46.2000008 L190.066652,46.2000008 L190.066652,47 L182.066659,47 Z M199.133327,47 L199.133327,39.0000076 L205.133322,39.0000076 C206.23332,39.0000076 207.13332,39.9000068 207.13332,41.0000057 L207.13332,41.4000053 C207.13332,42.5000043 206.23332,43.4000034 205.133322,43.4000034 L199.933326,43.4000034 L199.933326,47 L199.133327,47 Z M199.933326,42.6000042 L205.133322,42.6000042 C205.793321,42.6000042 206.33332,42.0600047 206.33332,41.4000053 L206.33332,41.0000057 C206.33332,40.3400064 205.793321,39.8000069 205.133322,39.8000069 L199.933326,39.8000069 L199.933326,42.6000042 Z M210.466661,47 L210.466661,39.0000076 L211.26666,39.0000076 L211.26666,47 L210.466661,47 Z M214.599995,47 L214.599995,39.0000076 L220.59999,39.0000076 C221.699988,39.0000076 222.599988,39.9000068 222.599988,41.0000057 L222.599988,41.4000053 C222.599988,42.5000043 221.699988,43.4000034 220.59999,43.4000034 L215.399994,43.4000034 L215.399994,47 L214.599995,47 Z M215.399994,42.6000042 L220.59999,42.6000042 C221.259989,42.6000042 221.799988,42.0600047 221.799988,41.4000053 L221.799988,41.0000057 C221.799988,40.3400064 221.259989,39.8000069 220.59999,39.8000069 L215.399994,39.8000069 L215.399994,42.6000042 Z M225.533329,47 L225.533329,39.0000076 L233.533322,39.0000076 L233.533322,39.8000069 L226.333328,39.8000069 L226.333328,42.6000042 L231.933323,42.6000042 L231.933323,43.4000034 L226.333328,43.4000034 L226.333328,46.2000008 L233.533322,46.2000008 L233.533322,47 L225.533329,47 Z M236.466663,47 L236.466663,39.0000076 L237.266662,39.0000076 L237.266662,46.2000008 L244.466656,46.2000008 L244.466656,47 L236.466663,47 Z M247.799997,47 L247.799997,39.0000076 L248.599996,39.0000076 L248.599996,47 L247.799997,47 Z M251.933331,47 L251.933331,39.0000076 L252.73333,39.0000076 L259.133324,45.7700012 L259.133324,39.0000076 L259.933324,39.0000076 L259.933324,47 L259.133324,47 L252.73333,40.2300065 L252.73333,47 L251.933331,47 Z M262.866665,47 L262.866665,39.0000076 L270.866658,39.0000076 L270.866658,39.8000069 L263.666664,39.8000069 L263.666664,42.6000042 L269.266659,42.6000042 L269.266659,43.4000034 L263.666664,43.4000034 L263.666664,46.2000008 L270.866658,46.2000008 L270.866658,47 L262.866665,47 Z" id="WebGL-PIPELINE" fill="#FFFFFF"></path>
                <path d="M136.266655,58.0000076 L144.266648,58.0000076 L144.266648,58.8000069 L140.666651,58.8000069 L140.666651,66 L139.866652,66 L139.866652,58.8000069 L136.266655,58.8000069 L136.266655,58.0000076 Z M147.199989,66 L147.199989,58.0000076 L147.999988,58.0000076 L147.999988,61.6000042 L154.399982,61.6000042 L154.399982,58.0000076 L155.199982,58.0000076 L155.199982,66 L154.399982,66 L154.399982,62.4000034 L147.999988,62.4000034 L147.999988,66 L147.199989,66 Z M158.133323,66 L158.133323,58.0000076 L164.133318,58.0000076 C165.233316,58.0000076 166.133316,58.9000068 166.133316,60.0000057 L166.133316,60.4000053 C166.133316,61.5000043 165.233316,62.4000034 164.133318,62.4000034 L163.593318,62.4000034 L166.133316,66 L165.143317,66 L162.613319,62.4000034 L158.933322,62.4000034 L158.933322,66 L158.133323,66 Z M158.933322,61.6000042 L164.133318,61.6000042 C164.793317,61.6000042 165.333316,61.0600047 165.333316,60.4000053 L165.333316,60.0000057 C165.333316,59.3400064 164.793317,58.8000069 164.133318,58.8000069 L158.933322,58.8000069 L158.933322,61.6000042 Z M169.066657,66 L169.066657,58.0000076 L177.06665,58.0000076 L177.06665,58.8000069 L169.866656,58.8000069 L169.866656,61.6000042 L175.466651,61.6000042 L175.466651,62.4000034 L169.866656,62.4000034 L169.866656,65.2000008 L177.06665,65.2000008 L177.06665,66 L169.066657,66 Z M179.999991,66 L179.999991,58.0000076 L187.999984,58.0000076 L187.999984,58.8000069 L180.79999,58.8000069 L180.79999,61.6000042 L186.399985,61.6000042 L186.399985,62.4000034 L180.79999,62.4000034 L180.79999,65.2000008 L187.999984,65.2000008 L187.999984,66 L179.999991,66 Z M191.333325,66 L191.333325,64.8300011 L192.133324,64.8300011 L192.133324,66 L191.333325,66 Z M195.466659,66 L195.466659,65.2000008 L201.466654,65.2000008 C202.126653,65.2000008 202.666652,64.6600013 202.666652,64.0000019 L202.666652,58.0000076 L203.466652,58.0000076 L203.466652,64.0000019 C203.466652,65.1000009 202.566652,66 201.466654,66 L195.466659,66 Z M206.749993,66 L206.749993,65.2000008 L212.449987,65.2000008 C213.109987,65.2000008 213.649986,64.6600013 213.649986,64.0000019 L213.649986,63.6000023 C213.649986,62.9400029 213.109987,62.4000034 212.449987,62.4000034 L208.349991,62.4000034 C207.249992,62.4000034 206.349993,61.5000043 206.349993,60.4000053 L206.349993,60.0000057 C206.349993,58.9000068 207.249992,58.0000076 208.349991,58.0000076 L214.049986,58.0000076 L214.049986,58.8000069 L208.349991,58.8000069 C207.689992,58.8000069 207.149993,59.3400064 207.149993,60.0000057 L207.149993,60.4000053 C207.149993,61.0600047 207.689992,61.6000042 208.349991,61.6000042 L212.449987,61.6000042 C213.549986,61.6000042 214.449986,62.5000033 214.449986,63.6000023 L214.449986,64.0000019 C214.449986,65.1000009 213.549986,66 212.449987,66 L206.749993,66 Z M223.466661,66 L223.466661,58.0000076 L224.26666,58.0000076 L224.26666,65.2000008 L231.466654,65.2000008 L231.466654,66 L223.466661,66 Z M234.399995,66 L234.399995,65.2000008 L236.399993,65.2000008 L236.399993,58.8000069 L234.399995,58.8000069 L234.399995,58.0000076 L239.199991,58.0000076 L239.199991,58.8000069 L237.199993,58.8000069 L237.199993,65.2000008 L239.199991,65.2000008 L239.199991,66 L234.399995,66 Z M249.103323,62.0000038 C249.643322,62.2400036 250.133322,62.850003 250.133322,63.6000023 L250.133322,64.0000019 C250.133322,65.1000009 249.233322,66 248.133324,66 L242.133329,66 L242.133329,58.0000076 L248.133324,58.0000076 C249.233322,58.0000076 250.133322,58.9000068 250.133322,60.0000057 L250.133322,60.4000053 C250.133322,61.1500046 249.643322,61.760004 249.103323,62.0000038 Z M248.133324,62.4000034 L242.933328,62.4000034 L242.933328,65.2000008 L248.133324,65.2000008 C248.793323,65.2000008 249.333322,64.6600013 249.333322,64.0000019 L249.333322,63.6000023 C249.333322,62.9400029 248.793323,62.4000034 248.133324,62.4000034 Z M248.133324,58.8000069 L242.933328,58.8000069 L242.933328,61.6000042 L248.133324,61.6000042 C248.793323,61.6000042 249.333322,61.0500047 249.333322,60.4000053 L249.333322,60.0000057 C249.333322,59.3400064 248.793323,58.8000069 248.133324,58.8000069 Z M253.066663,58.0000076 L259.066658,58.0000076 C260.166656,58.0000076 261.066656,58.9000068 261.066656,60.0000057 L261.066656,60.4000053 C261.066656,61.1500046 260.576656,61.760004 260.036657,62.0000038 C260.576656,62.2400036 261.066656,62.850003 261.066656,63.6000023 L261.066656,66 L260.266656,66 L260.266656,63.6000023 C260.266656,62.9500029 259.726657,62.4000034 259.066658,62.4000034 L253.866662,62.4000034 L253.866662,66 L253.066663,66 L253.066663,58.0000076 Z M259.066658,58.8000069 L253.866662,58.8000069 L253.866662,61.6000042 L259.066658,61.6000042 C259.726657,61.6000042 260.266656,61.0500047 260.266656,60.4000053 L260.266656,60.0000057 C260.266656,59.3400064 259.726657,58.8000069 259.066658,58.8000069 Z M263.999997,66 L263.999997,62.860003 C263.999997,62.4500034 264.129997,62.0400038 264.359997,61.7100041 L266.359995,58.8500068 C266.749995,58.3000073 267.379994,58.0000076 267.999993,58.0000076 C268.619993,58.0000076 269.249992,58.3000073 269.639992,58.8500068 L271.63999,61.7100041 C271.86999,62.0300038 271.99999,62.4400034 271.99999,62.860003 L271.99999,66 L271.19999,66 L271.19999,63.6000023 L264.799996,63.6000023 L264.799996,66 L263.999997,66 Z M267.999993,58.8000069 C267.449994,58.8000069 267.129994,59.1500065 266.989994,59.3500063 L265.019996,62.1700037 C264.869996,62.3800035 264.809996,62.6100032 264.799996,62.8000031 L271.19999,62.8000031 C271.18999,62.6100032 271.12999,62.3800035 270.979991,62.1700037 L269.009992,59.3500063 C268.869993,59.1600065 268.549993,58.8000069 267.999993,58.8000069 Z M274.933331,58.0000076 L280.933326,58.0000076 C282.033324,58.0000076 282.933324,58.9000068 282.933324,60.0000057 L282.933324,60.4000053 C282.933324,61.1500046 282.443324,61.760004 281.903325,62.0000038 C282.443324,62.2400036 282.933324,62.850003 282.933324,63.6000023 L282.933324,66 L282.133324,66 L282.133324,63.6000023 C282.133324,62.9500029 281.593325,62.4000034 280.933326,62.4000034 L275.73333,62.4000034 L275.73333,66 L274.933331,66 L274.933331,58.0000076 Z M280.933326,58.8000069 L275.73333,58.8000069 L275.73333,61.6000042 L280.933326,61.6000042 C281.593325,61.6000042 282.133324,61.0500047 282.133324,60.4000053 L282.133324,60.0000057 C282.133324,59.3400064 281.593325,58.8000069 280.933326,58.8000069 Z M286.666664,58.0000076 L286.666664,60.4000053 C286.666664,61.0600047 287.206664,61.6000042 287.866663,61.6000042 L291.86666,61.6000042 C292.526659,61.6000042 293.066658,61.0600047 293.066658,60.4000053 L293.066658,58.0000076 L293.866658,58.0000076 L293.866658,60.4000053 C293.866658,61.5000043 292.966658,62.4000034 291.86666,62.4000034 L290.266661,62.4000034 L290.266661,66 L289.466662,66 L289.466662,62.4000034 L287.866663,62.4000034 C286.766664,62.4000034 285.866665,61.5000043 285.866665,60.4000053 L285.866665,58.0000076 L286.666664,58.0000076 Z" id="THREE.JS-Library" fill="#FFFFFF"></path>
                <path d="M146.066656,79.0000076 L146.066656,79.8000069 L140.066661,79.8000069 C139.406662,79.8000069 138.866662,80.3400064 138.866662,81.0000057 L138.866662,85.0000019 C138.866662,85.6600013 139.406662,86.2000008 140.066661,86.2000008 L145.266656,86.2000008 L145.266656,83.4000034 L141.26666,83.4000034 L141.26666,82.6000042 L146.066656,82.6000042 L146.066656,87 L140.066661,87 C138.966662,87 138.066663,86.1000009 138.066663,85.0000019 L138.066663,81.0000057 C138.066663,79.9000068 138.966662,79.0000076 140.066661,79.0000076 L146.066656,79.0000076 Z M148.999997,87 L148.999997,79.0000076 L149.799996,79.0000076 L149.799996,86.2000008 L156.99999,86.2000008 L156.99999,87 L148.999997,87 Z M160.283331,87 L160.283331,86.2000008 L165.983325,86.2000008 C166.643325,86.2000008 167.183324,85.6600013 167.183324,85.0000019 L167.183324,84.6000023 C167.183324,83.9400029 166.643325,83.4000034 165.983325,83.4000034 L161.883329,83.4000034 C160.78333,83.4000034 159.883331,82.5000043 159.883331,81.4000053 L159.883331,81.0000057 C159.883331,79.9000068 160.78333,79.0000076 161.883329,79.0000076 L167.583324,79.0000076 L167.583324,79.8000069 L161.883329,79.8000069 C161.22333,79.8000069 160.683331,80.3400064 160.683331,81.0000057 L160.683331,81.4000053 C160.683331,82.0600047 161.22333,82.6000042 161.883329,82.6000042 L165.983325,82.6000042 C167.083324,82.6000042 167.983324,83.5000033 167.983324,84.6000023 L167.983324,85.0000019 C167.983324,86.1000009 167.083324,87 165.983325,87 L160.283331,87 Z M170.866665,87 L170.866665,79.0000076 L171.666664,79.0000076 L171.666664,86.2000008 L178.866658,86.2000008 L178.866658,87 L170.866665,87 Z" id="GLSL" fill="#FFFFFF"></path>
                <path d="M138.866653,107 L138.866653,99.0000076 L144.866648,99.0000076 C145.966646,99.0000076 146.866646,99.9000068 146.866646,101.000006 L146.866646,101.400005 C146.866646,102.500004 145.966646,103.400003 144.866648,103.400003 L139.666652,103.400003 L139.666652,107 L138.866653,107 Z M139.666652,102.600004 L144.866648,102.600004 C145.526647,102.600004 146.066646,102.060005 146.066646,101.400005 L146.066646,101.000006 C146.066646,100.340006 145.526647,99.8000069 144.866648,99.8000069 L139.666652,99.8000069 L139.666652,102.600004 Z M149.799987,107 L149.799987,103.860003 C149.799987,103.450003 149.929987,103.040004 150.159987,102.710004 L152.159985,99.8500068 C152.549985,99.3000073 153.179984,99.0000076 153.799983,99.0000076 C154.419983,99.0000076 155.049982,99.3000073 155.439982,99.8500068 L157.43998,102.710004 C157.66998,103.030004 157.79998,103.440003 157.79998,103.860003 L157.79998,107 L156.99998,107 L156.99998,104.600002 L150.599986,104.600002 L150.599986,107 L149.799987,107 Z M153.799983,99.8000069 C153.249984,99.8000069 152.929984,100.150007 152.789984,100.350006 L150.819986,103.170004 C150.669986,103.380003 150.609986,103.610003 150.599986,103.800003 L156.99998,103.800003 C156.98998,103.610003 156.92998,103.380003 156.779981,103.170004 L154.809982,100.350006 C154.669983,100.160007 154.349983,99.8000069 153.799983,99.8000069 Z M160.733321,99.0000076 L166.733316,99.0000076 C167.833314,99.0000076 168.733314,99.9000068 168.733314,101.000006 L168.733314,101.400005 C168.733314,102.150005 168.243314,102.760004 167.703315,103.000004 C168.243314,103.240004 168.733314,103.850003 168.733314,104.600002 L168.733314,107 L167.933314,107 L167.933314,104.600002 C167.933314,103.950003 167.393315,103.400003 166.733316,103.400003 L161.53332,103.400003 L161.53332,107 L160.733321,107 L160.733321,99.0000076 Z M166.733316,99.8000069 L161.53332,99.8000069 L161.53332,102.600004 L166.733316,102.600004 C167.393315,102.600004 167.933314,102.050005 167.933314,101.400005 L167.933314,101.000006 C167.933314,100.340006 167.393315,99.8000069 166.733316,99.8000069 Z M171.666655,99.0000076 L179.666648,99.0000076 L179.666648,99.8000069 L176.066651,99.8000069 L176.066651,107 L175.266652,107 L175.266652,99.8000069 L171.666655,99.8000069 L171.666655,99.0000076 Z M182.599989,107 L182.599989,106.200001 L184.599987,106.200001 L184.599987,99.8000069 L182.599989,99.8000069 L182.599989,99.0000076 L187.399985,99.0000076 L187.399985,99.8000069 L185.399987,99.8000069 L185.399987,106.200001 L187.399985,106.200001 L187.399985,107 L182.599989,107 Z M198.333316,101.400005 L197.533316,101.400005 L197.533316,101.000006 C197.533316,100.340006 196.993317,99.8000069 196.333318,99.8000069 L192.333321,99.8000069 C191.673322,99.8000069 191.133322,100.340006 191.133322,101.000006 L191.133322,105.000002 C191.133322,105.660001 191.673322,106.200001 192.333321,106.200001 L196.333318,106.200001 C196.993317,106.200001 197.533316,105.660001 197.533316,105.000002 L197.533316,104.600002 L198.333316,104.600002 L198.333316,105.000002 C198.333316,106.100001 197.433316,107 196.333318,107 L192.333321,107 C191.233322,107 190.333323,106.100001 190.333323,105.000002 L190.333323,101.000006 C190.333323,99.9000068 191.233322,99.0000076 192.333321,99.0000076 L196.333318,99.0000076 C197.433316,99.0000076 198.333316,99.9000068 198.333316,101.000006 L198.333316,101.400005 Z M201.266657,99.0000076 L202.066656,99.0000076 L202.066656,105.000002 C202.066656,105.660001 202.606656,106.200001 203.266655,106.200001 L209.26665,106.200001 L209.26665,107 L203.266655,107 C202.166656,107 201.266657,106.100001 201.266657,105.000002 L201.266657,99.0000076 Z M220.199984,99.8000069 L214.199989,99.8000069 C213.53999,99.8000069 212.99999,100.340006 212.99999,101.000006 L212.99999,102.600004 L218.599985,102.600004 L218.599985,103.400003 L212.99999,103.400003 L212.99999,105.000002 C212.99999,105.660001 213.53999,106.200001 214.199989,106.200001 L220.199984,106.200001 L220.199984,107 L214.199989,107 C213.09999,107 212.199991,106.100001 212.199991,105.000002 L212.199991,101.000006 C212.199991,99.9000068 213.09999,99.0000076 214.199989,99.0000076 L220.199984,99.0000076 L220.199984,99.8000069 Z M229.616659,107 L229.616659,106.200001 L235.316653,106.200001 C235.976653,106.200001 236.516652,105.660001 236.516652,105.000002 L236.516652,104.600002 C236.516652,103.940003 235.976653,103.400003 235.316653,103.400003 L231.216657,103.400003 C230.116658,103.400003 229.216659,102.500004 229.216659,101.400005 L229.216659,101.000006 C229.216659,99.9000068 230.116658,99.0000076 231.216657,99.0000076 L236.916652,99.0000076 L236.916652,99.8000069 L231.216657,99.8000069 C230.556658,99.8000069 230.016659,100.340006 230.016659,101.000006 L230.016659,101.400005 C230.016659,102.060005 230.556658,102.600004 231.216657,102.600004 L235.316653,102.600004 C236.416652,102.600004 237.316652,103.500003 237.316652,104.600002 L237.316652,105.000002 C237.316652,106.100001 236.416652,107 235.316653,107 L229.616659,107 Z M240.599993,107 L240.599993,99.0000076 L241.399992,99.0000076 L241.399992,107 L240.599993,107 Z M244.733327,107 L244.733327,99.0000076 L245.533326,99.0000076 L248.733323,103.140004 L251.93332,99.0000076 L252.73332,99.0000076 L252.73332,107 L251.93332,107 L251.93332,100.580006 L249.113323,104.070003 L248.353324,104.070003 L245.533326,100.580006 L245.533326,107 L244.733327,107 Z M255.666661,99.0000076 L256.46666,99.0000076 L256.46666,105.000002 C256.46666,105.660001 257.00666,106.200001 257.666659,106.200001 L261.666656,106.200001 C262.326655,106.200001 262.866654,105.660001 262.866654,105.000002 L262.866654,99.0000076 L263.666654,99.0000076 L263.666654,105.000002 C263.666654,106.100001 262.766654,107 261.666656,107 L257.666659,107 C256.56666,107 255.666661,106.100001 255.666661,105.000002 L255.666661,99.0000076 Z M266.599995,107 L266.599995,99.0000076 L267.399994,99.0000076 L267.399994,106.200001 L274.599988,106.200001 L274.599988,107 L266.599995,107 Z M277.533329,107 L277.533329,101.000006 C277.533329,99.9000068 278.433328,99.0000076 279.533327,99.0000076 L283.533324,99.0000076 C284.633322,99.0000076 285.533322,99.9000068 285.533322,101.000006 L285.533322,107 L284.733322,107 L284.733322,103.400003 L278.333328,103.400003 L278.333328,107 L277.533329,107 Z M278.333328,102.600004 L284.733322,102.600004 L284.733322,101.000006 C284.733322,100.340006 284.193323,99.8000069 283.533324,99.8000069 L279.533327,99.8000069 C278.873328,99.8000069 278.333328,100.340006 278.333328,101.000006 L278.333328,102.600004 Z M288.466663,99.0000076 L296.466656,99.0000076 L296.466656,99.8000069 L292.866659,99.8000069 L292.866659,107 L292.06666,107 L292.06666,99.8000069 L288.466663,99.8000069 L288.466663,99.0000076 Z M299.799997,107 L299.799997,99.0000076 L300.599996,99.0000076 L300.599996,107 L299.799997,107 Z M303.933331,105.000002 L303.933331,101.000006 C303.933331,99.9000068 304.83333,99.0000076 305.933329,99.0000076 L309.933326,99.0000076 C311.033324,99.0000076 311.933324,99.9000068 311.933324,101.000006 L311.933324,105.000002 C311.933324,106.100001 311.033324,107 309.933326,107 L305.933329,107 C304.83333,107 303.933331,106.100001 303.933331,105.000002 Z M305.933329,106.200001 L309.933326,106.200001 C310.593325,106.200001 311.133324,105.660001 311.133324,105.000002 L311.133324,101.000006 C311.133324,100.340006 310.593325,99.8000069 309.933326,99.8000069 L305.933329,99.8000069 C305.27333,99.8000069 304.73333,100.340006 304.73333,101.000006 L304.73333,105.000002 C304.73333,105.660001 305.27333,106.200001 305.933329,106.200001 Z M322.866658,107 L321.666659,107 C320.82666,107 320.17666,106.49 319.87666,105.880001 L317.106663,100.410006 C316.926663,100.090007 316.566664,99.8000069 316.066664,99.8000069 L315.666664,99.8000069 L315.666664,107 L314.866665,107 L314.866665,99.0000076 L316.066664,99.0000076 C316.906663,99.0000076 317.566663,99.5200071 317.866662,100.160007 L320.62666,105.590001 C320.79666,105.900001 321.146659,106.200001 321.666659,106.200001 L322.066658,106.200001 L322.066658,99.0000076 L322.866658,99.0000076 L322.866658,107 Z" id="Particle-SIMULATIOn" fill="#FFFFFF"></path>
                <g id="Group-5" transform="translate(137.000000, 0.000000)">
                    <g id="Rectangle-8">
                        <use fill-opacity="0.217164855" fill="#E6B976" fill-rule="evenodd" xlink:href="#path-2"></use>
                        <rect stroke="#EAA948" stroke-width="1" x="0.5" y="0.5" width="152" height="24"></rect>
                    </g>
                    <path d="M12.2666572,9.00000763 L13.0666565,9.00000763 L13.0666565,10.2000065 C13.0666565,10.680006 13.3666562,11.1100056 13.7966558,11.2900054 L16.2666534,12.7100041 L18.7366511,11.2900054 C19.1666507,11.1100056 19.4666504,10.680006 19.4666504,10.2000065 L19.4666504,9.00000763 L20.2666496,9.00000763 L20.2666496,10.2000065 C20.2666496,11.0300057 19.7566501,11.6300051 19.2466506,11.9100049 L16.666653,13.4200034 L16.666653,17 L15.8666538,17 L15.8666538,13.4200034 L13.2866563,11.9100049 C12.7766568,11.6300051 12.2666572,11.0300057 12.2666572,10.2000065 L12.2666572,9.00000763 Z M31.1999836,11.0000057 L31.1999836,15.0000019 C31.1999836,16.1000009 30.2999845,17 29.1999855,17 L25.1999893,17 C24.0999904,17 23.1999912,16.1000009 23.1999912,15.0000019 L23.1999912,11.0000057 C23.1999912,9.90000677 24.0999904,9.00000763 25.1999893,9.00000763 L29.1999855,9.00000763 C30.2999845,9.00000763 31.1999836,9.90000677 31.1999836,11.0000057 Z M25.1999893,16.2000008 L29.1999855,16.2000008 C29.8599849,16.2000008 30.3999844,15.6600013 30.3999844,15.0000019 L30.3999844,11.0000057 C30.3999844,10.3400064 29.8599849,9.80000687 29.1999855,9.80000687 L25.1999893,9.80000687 C24.53999,9.80000687 23.9999905,10.3400064 23.9999905,11.0000057 L23.9999905,15.0000019 C23.9999905,15.6600013 24.53999,16.2000008 25.1999893,16.2000008 Z M34.9333245,9.00000763 L34.9333245,15.0000019 C34.9333245,15.6600013 35.473324,16.2000008 36.1333233,16.2000008 L40.1333195,16.2000008 C40.7933189,16.2000008 41.3333184,15.6600013 41.3333184,15.0000019 L41.3333184,9.00000763 L42.1333176,9.00000763 L42.1333176,15.0000019 C42.1333176,16.1000009 41.2333185,17 40.1333195,17 L36.1333233,17 C35.0333244,17 34.1333252,16.1000009 34.1333252,15.0000019 L34.1333252,9.00000763 L34.9333245,9.00000763 Z M59.1999856,11.4000053 L58.3999864,11.4000053 L58.3999864,11.0000057 C58.3999864,10.3400064 57.8599869,9.80000687 57.1999875,9.80000687 L53.1999913,9.80000687 C52.539992,9.80000687 51.9999925,10.3400064 51.9999925,11.0000057 L51.9999925,15.0000019 C51.9999925,15.6600013 52.539992,16.2000008 53.1999913,16.2000008 L57.1999875,16.2000008 C57.8599869,16.2000008 58.3999864,15.6600013 58.3999864,15.0000019 L58.3999864,14.6000023 L59.1999856,14.6000023 L59.1999856,15.0000019 C59.1999856,16.1000009 58.2999865,17 57.1999875,17 L53.1999913,17 C52.0999924,17 51.1999932,16.1000009 51.1999932,15.0000019 L51.1999932,11.0000057 C51.1999932,9.90000677 52.0999924,9.00000763 53.1999913,9.00000763 L57.1999875,9.00000763 C58.2999865,9.00000763 59.1999856,9.90000677 59.1999856,11.0000057 L59.1999856,11.4000053 Z M62.1333272,17 L62.1333272,13.860003 C62.1333272,13.4500034 62.2633271,13.0400038 62.4933269,12.7100041 L64.493325,9.85000682 C64.8833246,9.30000734 65.513324,9.00000763 66.1333234,9.00000763 C66.7533228,9.00000763 67.3833222,9.30000734 67.7733219,9.85000682 L69.77332,12.7100041 C70.0033197,13.0300038 70.1333196,13.4400034 70.1333196,13.860003 L70.1333196,17 L69.3333204,17 L69.3333204,14.6000023 L62.9333265,14.6000023 L62.9333265,17 L62.1333272,17 Z M66.1333234,9.80000687 C65.5833239,9.80000687 65.2633243,10.1500065 65.1233244,10.3500063 L63.1533263,13.1700037 C63.0033264,13.3800035 62.9433265,13.6100032 62.9333265,13.8000031 L69.3333204,13.8000031 C69.3233204,13.6100032 69.2633204,13.3800035 69.1133206,13.1700037 L67.1433225,10.3500063 C67.0033226,10.1600065 66.6833229,9.80000687 66.1333234,9.80000687 Z M81.0666536,17 L79.8666548,17 C79.0266556,17 78.3766562,16.4900005 78.0766565,15.8800011 L75.3066591,10.4100063 C75.1266593,10.0900066 74.7666596,9.80000687 74.2666601,9.80000687 L73.8666605,9.80000687 L73.8666605,17 L73.0666612,17 L73.0666612,9.00000763 L74.2666601,9.00000763 C75.1066593,9.00000763 75.7666587,9.52000713 76.0666584,10.1600065 L78.8266557,15.5900013 C78.9966556,15.900001 79.3466552,16.2000008 79.8666548,16.2000008 L80.2666544,16.2000008 L80.2666544,9.00000763 L81.0666536,9.00000763 L81.0666536,17 Z M90.1333292,9.00000763 L90.9333285,9.00000763 L90.9333285,15.0000019 C90.9333285,15.6600013 91.473328,16.2000008 92.1333273,16.2000008 L98.1333216,16.2000008 L98.1333216,17 L92.1333273,17 C91.0333284,17 90.1333292,16.1000009 90.1333292,15.0000019 L90.1333292,9.00000763 Z M109.066656,9.80000687 L103.066661,9.80000687 C102.406662,9.80000687 101.866662,10.3400064 101.866662,11.0000057 L101.866662,12.6000042 L107.466657,12.6000042 L107.466657,13.4000034 L101.866662,13.4000034 L101.866662,15.0000019 C101.866662,15.6600013 102.406662,16.2000008 103.066661,16.2000008 L109.066656,16.2000008 L109.066656,17 L103.066661,17 C101.966662,17 101.066663,16.1000009 101.066663,15.0000019 L101.066663,11.0000057 C101.066663,9.90000677 101.966662,9.00000763 103.066661,9.00000763 L109.066656,9.00000763 L109.066656,9.80000687 Z M111.999997,17 L111.999997,13.860003 C111.999997,13.4500034 112.129997,13.0400038 112.359997,12.7100041 L114.359995,9.85000682 C114.749995,9.30000734 115.379994,9.00000763 115.999993,9.00000763 C116.619993,9.00000763 117.249992,9.30000734 117.639992,9.85000682 L119.63999,12.7100041 C119.86999,13.0300038 119.99999,13.4400034 119.99999,13.860003 L119.99999,17 L119.19999,17 L119.19999,14.6000023 L112.799996,14.6000023 L112.799996,17 L111.999997,17 Z M115.999993,9.80000687 C115.449994,9.80000687 115.129994,10.1500065 114.989994,10.3500063 L113.019996,13.1700037 C112.869996,13.3800035 112.809996,13.6100032 112.799996,13.8000031 L119.19999,13.8000031 C119.18999,13.6100032 119.12999,13.3800035 118.979991,13.1700037 L117.009992,10.3500063 C116.869993,10.1600065 116.549993,9.80000687 115.999993,9.80000687 Z M122.933331,9.00000763 L128.933326,9.00000763 C130.033324,9.00000763 130.933324,9.90000677 130.933324,11.0000057 L130.933324,11.4000053 C130.933324,12.1500046 130.443324,12.760004 129.903325,13.0000038 C130.443324,13.2400036 130.933324,13.850003 130.933324,14.6000023 L130.933324,17 L130.133324,17 L130.133324,14.6000023 C130.133324,13.9500029 129.593325,13.4000034 128.933326,13.4000034 L123.73333,13.4000034 L123.73333,17 L122.933331,17 L122.933331,9.00000763 Z M128.933326,9.80000687 L123.73333,9.80000687 L123.73333,12.6000042 L128.933326,12.6000042 C129.593325,12.6000042 130.133324,12.0500047 130.133324,11.4000053 L130.133324,11.0000057 C130.133324,10.3400064 129.593325,9.80000687 128.933326,9.80000687 Z M141.866658,17 L140.666659,17 C139.82666,17 139.17666,16.4900005 138.87666,15.8800011 L136.106663,10.4100063 C135.926663,10.0900066 135.566664,9.80000687 135.066664,9.80000687 L134.666664,9.80000687 L134.666664,17 L133.866665,17 L133.866665,9.00000763 L135.066664,9.00000763 C135.906663,9.00000763 136.566663,9.52000713 136.866662,10.1600065 L139.62666,15.5900013 C139.79666,15.900001 140.146659,16.2000008 140.666659,16.2000008 L141.066658,16.2000008 L141.066658,9.00000763 L141.866658,9.00000763 L141.866658,17 Z" id="You-can-learn" fill="#FFFFFF"></path>
                </g>
            </g>
        </g>
    </g>
</svg>