
<svg width="257px" height="56px" viewBox="0 0 257 56" version="1.1" xmlns="http://www.w3.org/2000/svg" xmlns:xlink="http://www.w3.org/1999/xlink">
    <!-- Generator: Sketch 49.3 (51167) - http://www.bohemiancoding.com/sketch -->
    <desc>Created with Sketch.</desc>
    <defs>
        <polygon id="path-1" points="10.9357337 0 257 0 257 49.5157375 246.288335 56 0 56 0 7.72424"></polygon>
    </defs>
    <g id="Page-1" stroke="none" stroke-width="1" fill="none" fill-rule="evenodd">
        <g id="Mobile---SVG-OUTPUT" transform="translate(-79.000000, -1059.000000)">
            <g id="Group-2" transform="translate(79.000000, 1059.000000)">
                <g id="Group">
                    <g id="Rectangle-2-Copy" transform="translate(128.500000, 28.000000) scale(1, -1) translate(-128.500000, -28.000000) ">
                        <use fill-opacity="0.6622226" fill="#223569" fill-rule="evenodd" xlink:href="#path-1"></use>
                        <path stroke="#47CCFF" stroke-width="1" d="M11.0945098,0.5 L0.5,7.98322321 L0.5,55.5 L246.148787,55.5 L256.5,49.2339355 L256.5,0.5 L11.0945098,0.5 Z"></path>
                    </g>
                </g>
                <path d="M92.2999973,32 L92.2999973,20.6666775 L103.63332,20.6666775 L103.63332,21.8000097 L93.4333296,21.8000097 L93.4333296,25.7666726 L101.366655,25.7666726 L101.366655,26.9000049 L93.4333296,26.9000049 L93.4333296,30.8666677 L103.63332,30.8666677 L103.63332,32 L92.2999973,32 Z M107.233331,32 L107.233331,20.6666775 L108.366664,20.6666775 L117.433322,30.2575017 L117.433322,20.6666775 L118.566654,20.6666775 L118.566654,32 L117.433322,32 L108.366664,22.4091758 L108.366664,32 L107.233331,32 Z M122.166665,20.6666775 L133.499988,20.6666775 L133.499988,21.8000097 L128.399993,21.8000097 L128.399993,32 L127.26666,32 L127.26666,21.8000097 L122.166665,21.8000097 L122.166665,20.6666775 Z M137.099999,32 L137.099999,20.6666775 L148.433322,20.6666775 L148.433322,21.8000097 L138.233331,21.8000097 L138.233331,25.7666726 L146.166657,25.7666726 L146.166657,26.9000049 L138.233331,26.9000049 L138.233331,30.8666677 L148.433322,30.8666677 L148.433322,32 L137.099999,32 Z M152.033333,32 L152.033333,20.6666775 L160.533325,20.6666775 C162.091657,20.6666775 163.366656,21.9416763 163.366656,23.5000081 L163.366656,24.0666742 C163.366656,25.6250061 162.091657,26.9000049 160.533325,26.9000049 L159.768326,26.9000049 L163.366656,32 L161.964157,32 L158.379994,26.9000049 L153.166665,26.9000049 L153.166665,32 L152.033333,32 Z M153.166665,25.7666726 L160.533325,25.7666726 C161.468324,25.7666726 162.233323,25.0016733 162.233323,24.0666742 L162.233323,23.5000081 C162.233323,22.565009 161.468324,21.8000097 160.533325,21.8000097 L153.166665,21.8000097 L153.166665,25.7666726 Z" id="ENTER" fill="#FFFFFF"></path>
            </g>
        </g>
    </g>
</svg>