
<svg width="292px" height="23px" viewBox="0 0 292 23" version="1.1" xmlns="http://www.w3.org/2000/svg" xmlns:xlink="http://www.w3.org/1999/xlink">
    <!-- Generator: Sketch 49.3 (51167) - http://www.bohemiancoding.com/sketch -->
    <desc>Created with Sketch.</desc>
    <defs>
        <polygon id="path-1" points="269.276953 23.9955258 292 1 0 1 22.7274685 24"></polygon>
    </defs>
    <g id="Page-1" stroke="none" stroke-width="1" fill="none" fill-rule="evenodd">
        <g id="Mobile---SVG-OUTPUT" transform="translate(-49.000000, -10.000000)">
            <g id="Group-6" transform="translate(49.000000, 9.000000)">
                <g id="Group-11-Copy-4">
                    <g id="Path-2">
                        <use fill-opacity="0.351704031" fill="#223569" fill-rule="evenodd" xlink:href="#path-1"></use>
                        <path stroke-opacity="0.412081069" stroke="#47CCFF" stroke-width="1" d="M269.068094,23.4955296 L290.802995,1.5 L1.19700535,1.5 L22.9363193,23.4999962 L269.068094,23.4955296 Z"></path>
                    </g>
                    <path d="M184.567568,23.5 L246.5,23.5" id="Line-4" stroke="#47CCFF" stroke-linecap="square"></path>
                    <path d="M33.5740741,1.5 L63.4259259,1.5" id="Line-4-Copy" stroke="#47CCFF" stroke-linecap="square"></path>
                </g>
                <path d="M73.0333265,9.00000763 L73.8333258,9.00000763 L73.8333258,15.4200015 L76.6533231,11.9300048 L77.4133224,11.9300048 L80.2333197,15.4200015 L80.2333197,9.00000763 L81.0333189,9.00000763 L81.0333189,17 L80.2333197,17 L77.0333227,12.8600039 L73.8333258,17 L73.0333265,17 L73.0333265,9.00000763 Z M91.9666529,9.80000687 L85.9666586,9.80000687 C85.3066592,9.80000687 84.7666597,10.3400064 84.7666597,11.0000057 L84.7666597,12.6000042 L90.3666544,12.6000042 L90.3666544,13.4000034 L84.7666597,13.4000034 L84.7666597,15.0000019 C84.7666597,15.6600013 85.3066592,16.2000008 85.9666586,16.2000008 L91.9666529,16.2000008 L91.9666529,17 L85.9666586,17 C84.8666596,17 83.9666605,16.1000009 83.9666605,15.0000019 L83.9666605,11.0000057 C83.9666605,9.90000677 84.8666596,9.00000763 85.9666586,9.00000763 L91.9666529,9.00000763 L91.9666529,9.80000687 Z M94.8999945,9.00000763 L95.6999937,9.00000763 L95.6999937,15.0000019 C95.6999937,15.6600013 96.2399932,16.2000008 96.8999926,16.2000008 L102.899987,16.2000008 L102.899987,17 L96.8999926,17 C95.7999936,17 94.8999945,16.1000009 94.8999945,15.0000019 L94.8999945,9.00000763 Z M113.833321,11.4000053 L113.033322,11.4000053 L113.033322,11.0000057 C113.033322,10.3400064 112.493322,9.80000687 111.833323,9.80000687 L107.833327,9.80000687 C107.173327,9.80000687 106.633328,10.3400064 106.633328,11.0000057 L106.633328,15.0000019 C106.633328,15.6600013 107.173327,16.2000008 107.833327,16.2000008 L111.833323,16.2000008 C112.493322,16.2000008 113.033322,15.6600013 113.033322,15.0000019 L113.033322,14.6000023 L113.833321,14.6000023 L113.833321,15.0000019 C113.833321,16.1000009 112.933322,17 111.833323,17 L107.833327,17 C106.733328,17 105.833328,16.1000009 105.833328,15.0000019 L105.833328,11.0000057 C105.833328,9.90000677 106.733328,9.00000763 107.833327,9.00000763 L111.833323,9.00000763 C112.933322,9.00000763 113.833321,9.90000677 113.833321,11.0000057 L113.833321,11.4000053 Z M124.766655,11.0000057 L124.766655,15.0000019 C124.766655,16.1000009 123.866656,17 122.766657,17 L118.76666,17 C117.666662,17 116.766662,16.1000009 116.766662,15.0000019 L116.766662,11.0000057 C116.766662,9.90000677 117.666662,9.00000763 118.76666,9.00000763 L122.766657,9.00000763 C123.866656,9.00000763 124.766655,9.90000677 124.766655,11.0000057 Z M118.76666,16.2000008 L122.766657,16.2000008 C123.426656,16.2000008 123.966656,15.6600013 123.966656,15.0000019 L123.966656,11.0000057 C123.966656,10.3400064 123.426656,9.80000687 122.766657,9.80000687 L118.76666,9.80000687 C118.106661,9.80000687 117.566662,10.3400064 117.566662,11.0000057 L117.566662,15.0000019 C117.566662,15.6600013 118.106661,16.2000008 118.76666,16.2000008 Z M127.699996,17 L127.699996,9.00000763 L128.499996,9.00000763 L131.699993,13.1400037 L134.89999,9.00000763 L135.699989,9.00000763 L135.699989,17 L134.89999,17 L134.89999,10.5800061 L132.079992,14.0700028 L131.319993,14.0700028 L128.499996,10.5800061 L128.499996,17 L127.699996,17 Z M146.633323,9.80000687 L140.633328,9.80000687 C139.973329,9.80000687 139.43333,10.3400064 139.43333,11.0000057 L139.43333,12.6000042 L145.033324,12.6000042 L145.033324,13.4000034 L139.43333,13.4000034 L139.43333,15.0000019 C139.43333,15.6600013 139.973329,16.2000008 140.633328,16.2000008 L146.633323,16.2000008 L146.633323,17 L140.633328,17 C139.533329,17 138.63333,16.1000009 138.63333,15.0000019 L138.63333,11.0000057 C138.63333,9.90000677 139.533329,9.00000763 140.633328,9.00000763 L146.633323,9.00000763 L146.633323,9.80000687 Z M155.699998,9.00000763 L163.699991,9.00000763 L163.699991,9.80000687 L160.099994,9.80000687 L160.099994,17 L159.299995,17 L159.299995,9.80000687 L155.699998,9.80000687 L155.699998,9.00000763 Z M166.633332,15.0000019 L166.633332,11.0000057 C166.633332,9.90000677 167.533331,9.00000763 168.63333,9.00000763 L172.633327,9.00000763 C173.733325,9.00000763 174.633325,9.90000677 174.633325,11.0000057 L174.633325,15.0000019 C174.633325,16.1000009 173.733325,17 172.633327,17 L168.63333,17 C167.533331,17 166.633332,16.1000009 166.633332,15.0000019 Z M168.63333,16.2000008 L172.633327,16.2000008 C173.293326,16.2000008 173.833325,15.6600013 173.833325,15.0000019 L173.833325,11.0000057 C173.833325,10.3400064 173.293326,9.80000687 172.633327,9.80000687 L168.63333,9.80000687 C167.973331,9.80000687 167.433331,10.3400064 167.433331,11.0000057 L167.433331,15.0000019 C167.433331,15.6600013 167.973331,16.2000008 168.63333,16.2000008 Z M183.7,9.00000763 L184.499999,9.00000763 L184.499999,11.9400048 C184.499999,12.2000046 184.559999,12.4500043 184.719999,12.6300042 L187.699996,16.2400007 L190.679994,12.6300042 C190.839993,12.4400043 190.899993,12.1900046 190.899993,11.9400048 L190.899993,9.00000763 L191.699993,9.00000763 L191.699993,11.9400048 C191.699993,12.3500044 191.589993,12.780004 191.339993,13.0900037 L188.139996,17 L187.259997,17 L184.06,13.0900037 C183.81,12.780004 183.7,12.3500044 183.7,11.9400048 L183.7,9.00000763 Z M195.033334,17 L195.033334,15.8300011 L195.833333,15.8300011 L195.833333,17 L195.033334,17 Z M199.166668,17 L199.166668,9.00000763 L207.16666,9.00000763 L207.16666,9.80000687 L199.966667,9.80000687 L199.966667,12.6000042 L205.566662,12.6000042 L205.566662,13.4000034 L199.966667,13.4000034 L199.966667,16.2000008 L207.16666,16.2000008 L207.16666,17 L199.166668,17 Z M210.500002,17 L210.500002,15.8300011 L211.300001,15.8300011 L211.300001,17 L210.500002,17 Z M214.633336,17 L214.633336,9.00000763 L215.433335,9.00000763 L215.433335,16.2000008 L222.633328,16.2000008 L222.633328,17 L214.633336,17 Z M225.96667,17 L225.96667,15.8300011 L226.766669,15.8300011 L226.766669,17 L225.96667,17 Z M230.100004,17 L230.100004,11.0000057 C230.100004,9.90000677 231.000003,9.00000763 232.100002,9.00000763 L236.099998,9.00000763 C237.199997,9.00000763 238.099996,9.90000677 238.099996,11.0000057 L238.099996,17 L237.299997,17 L237.299997,13.4000034 L230.900003,13.4000034 L230.900003,17 L230.100004,17 Z M230.900003,12.6000042 L237.299997,12.6000042 L237.299997,11.0000057 C237.299997,10.3400064 236.759998,9.80000687 236.099998,9.80000687 L232.100002,9.80000687 C231.440003,9.80000687 230.900003,10.3400064 230.900003,11.0000057 L230.900003,12.6000042 Z M241.433338,17 L241.433338,15.8300011 L242.233337,15.8300011 L242.233337,17 L241.433338,17 Z" id="welcome-TO-V.E.L.A." fill="#FFFFFF"></path>
            </g>
        </g>
    </g>
</svg>