
<svg width="285px" height="92px" viewBox="0 0 285 92" version="1.1" xmlns="http://www.w3.org/2000/svg" xmlns:xlink="http://www.w3.org/1999/xlink">
    <!-- Generator: Sketch 49.3 (51167) - http://www.bohemiancoding.com/sketch -->
    <desc>Created with Sketch.</desc>
    <defs>
        <linearGradient x1="93.6255548%" y1="-24.3672805%" x2="33.4536712%" y2="50%" id="linearGradient-1">
            <stop stop-color="#001A81" offset="0%"></stop>
            <stop stop-color="#26E8DF" offset="100%"></stop>
        </linearGradient>
    </defs>
    <g id="Page-1" stroke="none" stroke-width="1" fill="none" fill-rule="evenodd">
        <g id="Tablet" transform="translate(-459.000000, -661.000000)">
            <g id="Group-3" transform="translate(459.000000, 662.000000)">
                <g id="Group-7" transform="translate(160.000000, 0.000000)">
                    <g id="Group-4-Copy" transform="translate(0.000000, 41.000000)">
                        <polyline id="Line-3" stroke="url(#linearGradient-1)" stroke-linecap="square" points="7 43 50.0974188 43 82.2757353 1.13686838e-13 124 1.301112e-13"></polyline>
                        <circle id="Oval" stroke="#979797" stroke-width="3" cx="3.5" cy="42.5" r="3.5"></circle>
                    </g>
                    <g id="Group-4-Copy-2" transform="translate(0.000000, 21.000000)">
                        <polyline id="Line-3" stroke="url(#linearGradient-1)" stroke-linecap="square" points="7 43 50.0974188 43 82.2757353 1.13686838e-13 124 1.301112e-13"></polyline>
                        <circle id="Oval" stroke="#979797" stroke-width="3" cx="3.5" cy="42.5" r="3.5"></circle>
                    </g>
                    <g id="Group-4-Copy-3">
                        <polyline id="Line-3" stroke="url(#linearGradient-1)" stroke-linecap="square" points="7 43 50.0974188 43 82.2757353 1.13686838e-13 124 1.301112e-13"></polyline>
                        <circle id="Oval" stroke="#979797" stroke-width="3" cx="3.5" cy="42.5" r="3.5"></circle>
                    </g>
                </g>
                <path d="M0.933323237,48 L0.933323237,40.0000076 L8.93331561,40.0000076 L8.93331561,40.8000069 L1.73332247,40.8000069 L1.73332247,43.6000042 L7.33331713,43.6000042 L7.33331713,44.4000034 L1.73332247,44.4000034 L1.73332247,48 L0.933323237,48 Z M11.8666572,48 L11.8666572,40.0000076 L17.8666515,40.0000076 C18.9666505,40.0000076 19.8666496,40.9000068 19.8666496,42.0000057 L19.8666496,42.4000053 C19.8666496,43.5000043 18.9666505,44.4000034 17.8666515,44.4000034 L17.326652,44.4000034 L19.8666496,48 L18.8766506,48 L16.346653,44.4000034 L12.6666565,44.4000034 L12.6666565,48 L11.8666572,48 Z M12.6666565,43.6000042 L17.8666515,43.6000042 C18.5266509,43.6000042 19.0666504,43.0600047 19.0666504,42.4000053 L19.0666504,42.0000057 C19.0666504,41.3400064 18.5266509,40.8000069 17.8666515,40.8000069 L12.6666565,40.8000069 L12.6666565,43.6000042 Z M22.7999912,48 L22.7999912,40.0000076 L30.7999836,40.0000076 L30.7999836,40.8000069 L23.5999905,40.8000069 L23.5999905,43.6000042 L29.1999851,43.6000042 L29.1999851,44.4000034 L23.5999905,44.4000034 L23.5999905,47.2000008 L30.7999836,47.2000008 L30.7999836,48 L22.7999912,48 Z M33.7333252,48 L33.7333252,40.0000076 L41.7333176,40.0000076 L41.7333176,40.8000069 L34.5333245,40.8000069 L34.5333245,43.6000042 L40.1333191,43.6000042 L40.1333191,44.4000034 L34.5333245,44.4000034 L34.5333245,47.2000008 L41.7333176,47.2000008 L41.7333176,48 L33.7333252,48 Z M50.7999932,40.0000076 L58.7999856,40.0000076 L58.7999856,40.8000069 L55.199989,40.8000069 L55.199989,48 L54.3999898,48 L54.3999898,40.8000069 L50.7999932,40.8000069 L50.7999932,40.0000076 Z M61.7333272,40.0000076 L62.5333265,40.0000076 L62.5333265,46.0000019 C62.5333265,46.6600013 63.073326,47.2000008 63.7333253,47.2000008 L67.7333215,47.2000008 C68.3933209,47.2000008 68.9333204,46.6600013 68.9333204,46.0000019 L68.9333204,40.0000076 L69.7333196,40.0000076 L69.7333196,46.0000019 C69.7333196,47.1000009 68.8333205,48 67.7333215,48 L63.7333253,48 C62.6333264,48 61.7333272,47.1000009 61.7333272,46.0000019 L61.7333272,40.0000076 Z M72.6666612,40.0000076 L80.6666536,40.0000076 L80.6666536,40.8000069 L77.066657,40.8000069 L77.066657,48 L76.2666578,48 L76.2666578,40.8000069 L72.6666612,40.8000069 L72.6666612,40.0000076 Z M83.5999952,46.0000019 L83.5999952,42.0000057 C83.5999952,40.9000068 84.4999944,40.0000076 85.5999933,40.0000076 L89.5999895,40.0000076 C90.6999885,40.0000076 91.5999876,40.9000068 91.5999876,42.0000057 L91.5999876,46.0000019 C91.5999876,47.1000009 90.6999885,48 89.5999895,48 L85.5999933,48 C84.4999944,48 83.5999952,47.1000009 83.5999952,46.0000019 Z M85.5999933,47.2000008 L89.5999895,47.2000008 C90.2599889,47.2000008 90.7999884,46.6600013 90.7999884,46.0000019 L90.7999884,42.0000057 C90.7999884,41.3400064 90.2599889,40.8000069 89.5999895,40.8000069 L85.5999933,40.8000069 C84.939994,40.8000069 84.3999945,41.3400064 84.3999945,42.0000057 L84.3999945,46.0000019 C84.3999945,46.6600013 84.939994,47.2000008 85.5999933,47.2000008 Z M94.5333292,48 L94.5333292,40.0000076 L100.533324,40.0000076 C101.633322,40.0000076 102.533322,40.9000068 102.533322,42.0000057 L102.533322,42.4000053 C102.533322,43.5000043 101.633322,44.4000034 100.533324,44.4000034 L99.993324,44.4000034 L102.533322,48 L101.543323,48 L99.013325,44.4000034 L95.3333285,44.4000034 L95.3333285,48 L94.5333292,48 Z M95.3333285,43.6000042 L100.533324,43.6000042 C101.193323,43.6000042 101.733322,43.0600047 101.733322,42.4000053 L101.733322,42.0000057 C101.733322,41.3400064 101.193323,40.8000069 100.533324,40.8000069 L95.3333285,40.8000069 L95.3333285,43.6000042 Z M105.866663,48 L105.866663,40.0000076 L106.666662,40.0000076 L106.666662,48 L105.866663,48 Z M109.999997,48 L109.999997,42.0000057 C109.999997,40.9000068 110.899996,40.0000076 111.999995,40.0000076 L115.999992,40.0000076 C117.09999,40.0000076 117.99999,40.9000068 117.99999,42.0000057 L117.99999,48 L117.19999,48 L117.19999,44.4000034 L110.799996,44.4000034 L110.799996,48 L109.999997,48 Z M110.799996,43.6000042 L117.19999,43.6000042 L117.19999,42.0000057 C117.19999,41.3400064 116.659991,40.8000069 115.999992,40.8000069 L111.999995,40.8000069 C111.339996,40.8000069 110.799996,41.3400064 110.799996,42.0000057 L110.799996,43.6000042 Z M120.933331,48 L120.933331,40.0000076 L121.73333,40.0000076 L121.73333,47.2000008 L128.933324,47.2000008 L128.933324,48 L120.933331,48 Z M132.216665,48 L132.216665,47.2000008 L137.916659,47.2000008 C138.576659,47.2000008 139.116658,46.6600013 139.116658,46.0000019 L139.116658,45.6000023 C139.116658,44.9400029 138.576659,44.4000034 137.916659,44.4000034 L133.816663,44.4000034 C132.716664,44.4000034 131.816665,43.5000043 131.816665,42.4000053 L131.816665,42.0000057 C131.816665,40.9000068 132.716664,40.0000076 133.816663,40.0000076 L139.516658,40.0000076 L139.516658,40.8000069 L133.816663,40.8000069 C133.156664,40.8000069 132.616665,41.3400064 132.616665,42.0000057 L132.616665,42.4000053 C132.616665,43.0600047 133.156664,43.6000042 133.816663,43.6000042 L137.916659,43.6000042 C139.016658,43.6000042 139.916658,44.5000033 139.916658,45.6000023 L139.916658,46.0000019 C139.916658,47.1000009 139.016658,48 137.916659,48 L132.216665,48 Z" id="FREE-TUTORIALS" fill="#FFFFFF"></path>
                <path d="M21.5499909,69 L21.5499909,68.2000008 L27.2499855,68.2000008 C27.9099848,68.2000008 28.4499843,67.6600013 28.4499843,67.0000019 L28.4499843,66.6000023 C28.4499843,65.9400029 27.9099848,65.4000034 27.2499855,65.4000034 L23.1499894,65.4000034 C22.0499904,65.4000034 21.1499913,64.5000043 21.1499913,63.4000053 L21.1499913,63.0000057 C21.1499913,61.9000068 22.0499904,61.0000076 23.1499894,61.0000076 L28.8499839,61.0000076 L28.8499839,61.8000069 L23.1499894,61.8000069 C22.48999,61.8000069 21.9499905,62.3400064 21.9499905,63.0000057 L21.9499905,63.4000053 C21.9499905,64.0600047 22.48999,64.6000042 23.1499894,64.6000042 L27.2499855,64.6000042 C28.3499844,64.6000042 29.2499836,65.5000033 29.2499836,66.6000023 L29.2499836,67.0000019 C29.2499836,68.1000009 28.3499844,69 27.2499855,69 L21.5499909,69 Z M32.1333252,61.0000076 L40.1333176,61.0000076 L40.1333176,61.8000069 L36.533321,61.8000069 L36.533321,69 L35.7333218,69 L35.7333218,61.8000069 L32.1333252,61.8000069 L32.1333252,61.0000076 Z M51.0666516,61.8000069 L45.0666573,61.8000069 C44.406658,61.8000069 43.8666585,62.3400064 43.8666585,63.0000057 L43.8666585,64.6000042 L49.4666531,64.6000042 L49.4666531,65.4000034 L43.8666585,65.4000034 L43.8666585,67.0000019 C43.8666585,67.6600013 44.406658,68.2000008 45.0666573,68.2000008 L51.0666516,68.2000008 L51.0666516,69 L45.0666573,69 C43.9666584,69 43.0666592,68.1000009 43.0666592,67.0000019 L43.0666592,63.0000057 C43.0666592,61.9000068 43.9666584,61.0000076 45.0666573,61.0000076 L51.0666516,61.0000076 L51.0666516,61.8000069 Z M61.9999856,63.0000057 L61.9999856,63.4000053 C61.9999856,64.5000043 61.0999865,65.4000034 59.9999875,65.4000034 L54.7999925,65.4000034 L54.7999925,69 L53.9999932,69 L53.9999932,61.0000076 L59.9999875,61.0000076 C61.0999865,61.0000076 61.9999856,61.9000068 61.9999856,63.0000057 Z M54.7999925,64.6000042 L59.9999875,64.6000042 C60.6599869,64.6000042 61.1999864,64.0600047 61.1999864,63.4000053 L61.1999864,63.0000057 C61.1999864,62.3400064 60.6599869,61.8000069 59.9999875,61.8000069 L54.7999925,61.8000069 L54.7999925,64.6000042 Z M78.0366546,65.0000038 C78.5766541,65.2400036 79.0666536,65.850003 79.0666536,66.6000023 L79.0666536,67.0000019 C79.0666536,68.1000009 78.1666545,69 77.0666555,69 L71.0666612,69 L71.0666612,61.0000076 L77.0666555,61.0000076 C78.1666545,61.0000076 79.0666536,61.9000068 79.0666536,63.0000057 L79.0666536,63.4000053 C79.0666536,64.1500046 78.5766541,64.760004 78.0366546,65.0000038 Z M77.0666555,65.4000034 L71.8666605,65.4000034 L71.8666605,68.2000008 L77.0666555,68.2000008 C77.7266549,68.2000008 78.2666544,67.6600013 78.2666544,67.0000019 L78.2666544,66.6000023 C78.2666544,65.9400029 77.7266549,65.4000034 77.0666555,65.4000034 Z M77.0666555,61.8000069 L71.8666605,61.8000069 L71.8666605,64.6000042 L77.0666555,64.6000042 C77.7266549,64.6000042 78.2666544,64.0500047 78.2666544,63.4000053 L78.2666544,63.0000057 C78.2666544,62.3400064 77.7266549,61.8000069 77.0666555,61.8000069 Z M82.7999945,61.0000076 L82.7999945,63.4000053 C82.7999945,64.0600047 83.339994,64.6000042 83.9999933,64.6000042 L87.9999895,64.6000042 C88.6599889,64.6000042 89.1999884,64.0600047 89.1999884,63.4000053 L89.1999884,61.0000076 L89.9999876,61.0000076 L89.9999876,63.4000053 C89.9999876,64.5000043 89.0999885,65.4000034 87.9999895,65.4000034 L86.399991,65.4000034 L86.399991,69 L85.5999918,69 L85.5999918,65.4000034 L83.9999933,65.4000034 C82.8999944,65.4000034 81.9999952,64.5000043 81.9999952,63.4000053 L81.9999952,61.0000076 L82.7999945,61.0000076 Z M99.4166629,69 L99.4166629,68.2000008 L105.116657,68.2000008 C105.776657,68.2000008 106.316656,67.6600013 106.316656,67.0000019 L106.316656,66.6000023 C106.316656,65.9400029 105.776657,65.4000034 105.116657,65.4000034 L101.016661,65.4000034 C99.9166624,65.4000034 99.0166633,64.5000043 99.0166633,63.4000053 L99.0166633,63.0000057 C99.0166633,61.9000068 99.9166624,61.0000076 101.016661,61.0000076 L106.716656,61.0000076 L106.716656,61.8000069 L101.016661,61.8000069 C100.356662,61.8000069 99.8166625,62.3400064 99.8166625,63.0000057 L99.8166625,63.4000053 C99.8166625,64.0600047 100.356662,64.6000042 101.016661,64.6000042 L105.116657,64.6000042 C106.216656,64.6000042 107.116656,65.5000033 107.116656,66.6000023 L107.116656,67.0000019 C107.116656,68.1000009 106.216656,69 105.116657,69 L99.4166629,69 Z M109.999997,61.0000076 L117.99999,61.0000076 L117.99999,61.8000069 L114.399993,61.8000069 L114.399993,69 L113.599994,69 L113.599994,61.8000069 L109.999997,61.8000069 L109.999997,61.0000076 Z M128.933324,61.8000069 L122.933329,61.8000069 C122.27333,61.8000069 121.73333,62.3400064 121.73333,63.0000057 L121.73333,64.6000042 L127.333325,64.6000042 L127.333325,65.4000034 L121.73333,65.4000034 L121.73333,67.0000019 C121.73333,67.6600013 122.27333,68.2000008 122.933329,68.2000008 L128.933324,68.2000008 L128.933324,69 L122.933329,69 C121.83333,69 120.933331,68.1000009 120.933331,67.0000019 L120.933331,63.0000057 C120.933331,61.9000068 121.83333,61.0000076 122.933329,61.0000076 L128.933324,61.0000076 L128.933324,61.8000069 Z M139.866658,63.0000057 L139.866658,63.4000053 C139.866658,64.5000043 138.966658,65.4000034 137.86666,65.4000034 L132.666664,65.4000034 L132.666664,69 L131.866665,69 L131.866665,61.0000076 L137.86666,61.0000076 C138.966658,61.0000076 139.866658,61.9000068 139.866658,63.0000057 Z M132.666664,64.6000042 L137.86666,64.6000042 C138.526659,64.6000042 139.066658,64.0600047 139.066658,63.4000053 L139.066658,63.0000057 C139.066658,62.3400064 138.526659,61.8000069 137.86666,61.8000069 L132.666664,61.8000069 L132.666664,64.6000042 Z" id="Step-by-Step" fill="#FFFFFF"></path>
                <path d="M1.33332286,91 L1.33332286,83.0000076 L2.13332209,83.0000076 L2.13332209,91 L1.33332286,91 Z M5.46665724,91 L5.46665724,83.0000076 L6.26665647,83.0000076 L12.6666504,89.7700012 L12.6666504,83.0000076 L13.4666496,83.0000076 L13.4666496,91 L12.6666504,91 L6.26665647,84.2300065 L6.26665647,91 L5.46665724,91 Z M16.3999912,91 L16.3999912,83.0000076 L22.3999855,83.0000076 C23.4999845,83.0000076 24.3999836,83.9000068 24.3999836,85.0000057 L24.3999836,89.0000019 C24.3999836,90.1000009 23.4999845,91 22.3999855,91 L16.3999912,91 Z M17.1999905,90.2000008 L22.3999855,90.2000008 C23.0599849,90.2000008 23.5999844,89.6600013 23.5999844,89.0000019 L23.5999844,85.0000057 C23.5999844,84.3400064 23.0599849,83.8000069 22.3999855,83.8000069 L17.1999905,83.8000069 L17.1999905,90.2000008 Z M27.3333252,83.0000076 L28.1333245,83.0000076 L28.1333245,89.0000019 C28.1333245,89.6600013 28.673324,90.2000008 29.3333233,90.2000008 L33.3333195,90.2000008 C33.9933189,90.2000008 34.5333184,89.6600013 34.5333184,89.0000019 L34.5333184,83.0000076 L35.3333176,83.0000076 L35.3333176,89.0000019 C35.3333176,90.1000009 34.4333185,91 33.3333195,91 L29.3333233,91 C28.2333244,91 27.3333252,90.1000009 27.3333252,89.0000019 L27.3333252,83.0000076 Z M38.6166589,91 L38.6166589,90.2000008 L44.3166535,90.2000008 C44.9766528,90.2000008 45.5166523,89.6600013 45.5166523,89.0000019 L45.5166523,88.6000023 C45.5166523,87.9400029 44.9766528,87.4000034 44.3166535,87.4000034 L40.2166574,87.4000034 C39.1166584,87.4000034 38.2166593,86.5000043 38.2166593,85.4000053 L38.2166593,85.0000057 C38.2166593,83.9000068 39.1166584,83.0000076 40.2166574,83.0000076 L45.9166519,83.0000076 L45.9166519,83.8000069 L40.2166574,83.8000069 C39.556658,83.8000069 39.0166585,84.3400064 39.0166585,85.0000057 L39.0166585,85.4000053 C39.0166585,86.0600047 39.556658,86.6000042 40.2166574,86.6000042 L44.3166535,86.6000042 C45.4166524,86.6000042 46.3166516,87.5000033 46.3166516,88.6000023 L46.3166516,89.0000019 C46.3166516,90.1000009 45.4166524,91 44.3166535,91 L38.6166589,91 Z M49.1999932,83.0000076 L57.1999856,83.0000076 L57.1999856,83.8000069 L53.599989,83.8000069 L53.599989,91 L52.7999898,91 L52.7999898,83.8000069 L49.1999932,83.8000069 L49.1999932,83.0000076 Z M60.1333272,91 L60.1333272,83.0000076 L66.1333215,83.0000076 C67.2333205,83.0000076 68.1333196,83.9000068 68.1333196,85.0000057 L68.1333196,85.4000053 C68.1333196,86.5000043 67.2333205,87.4000034 66.1333215,87.4000034 L65.593322,87.4000034 L68.1333196,91 L67.1433206,91 L64.613323,87.4000034 L60.9333265,87.4000034 L60.9333265,91 L60.1333272,91 Z M60.9333265,86.6000042 L66.1333215,86.6000042 C66.7933209,86.6000042 67.3333204,86.0600047 67.3333204,85.4000053 L67.3333204,85.0000057 C67.3333204,84.3400064 66.7933209,83.8000069 66.1333215,83.8000069 L60.9333265,83.8000069 L60.9333265,86.6000042 Z M71.0666612,83.0000076 L71.8666605,83.0000076 L71.8666605,84.2000065 C71.8666605,84.680006 72.1666602,85.1100056 72.5966598,85.2900054 L75.0666574,86.7100041 L77.5366551,85.2900054 C77.9666547,85.1100056 78.2666544,84.680006 78.2666544,84.2000065 L78.2666544,83.0000076 L79.0666536,83.0000076 L79.0666536,84.2000065 C79.0666536,85.0300057 78.5566541,85.6300051 78.0466546,85.9100049 L75.466657,87.4200034 L75.466657,91 L74.6666578,91 L74.6666578,87.4200034 L72.0866603,85.9100049 C71.5766608,85.6300051 71.0666612,85.0300057 71.0666612,84.2000065 L71.0666612,83.0000076 Z M88.1333292,91 L88.1333292,83.0000076 L88.9333285,83.0000076 L88.9333285,90.2000008 L96.1333216,90.2000008 L96.1333216,91 L88.1333292,91 Z M107.066656,83.8000069 L101.066661,83.8000069 C100.406662,83.8000069 99.8666625,84.3400064 99.8666625,85.0000057 L99.8666625,86.6000042 L105.466657,86.6000042 L105.466657,87.4000034 L99.8666625,87.4000034 L99.8666625,89.0000019 C99.8666625,89.6600013 100.406662,90.2000008 101.066661,90.2000008 L107.066656,90.2000008 L107.066656,91 L101.066661,91 C99.9666624,91 99.0666632,90.1000009 99.0666632,89.0000019 L99.0666632,85.0000057 C99.0666632,83.9000068 99.9666624,83.0000076 101.066661,83.0000076 L107.066656,83.0000076 L107.066656,83.8000069 Z M109.999997,86.1400046 L109.999997,83.0000076 L110.799996,83.0000076 L110.799996,86.1400046 C110.799996,86.3800044 110.869996,86.6200042 111.019996,86.830004 L112.989994,89.6500013 C113.129994,89.8400011 113.449994,90.2000008 113.999993,90.2000008 C114.549993,90.2000008 114.869993,89.8400011 115.009992,89.6500013 L116.979991,86.830004 C117.12999,86.6200042 117.19999,86.3800044 117.19999,86.1400046 L117.19999,83.0000076 L117.99999,83.0000076 L117.99999,86.1400046 C117.99999,86.5600042 117.86999,86.9700038 117.63999,87.2900035 L115.639992,90.1500008 C115.249992,90.7000003 114.619993,91 113.999993,91 C113.359994,91 112.749995,90.7000003 112.359995,90.1500008 L110.359997,87.2900035 C110.129997,86.9600039 109.999997,86.5500042 109.999997,86.1400046 Z M128.933324,83.8000069 L122.933329,83.8000069 C122.27333,83.8000069 121.73333,84.3400064 121.73333,85.0000057 L121.73333,86.6000042 L127.333325,86.6000042 L127.333325,87.4000034 L121.73333,87.4000034 L121.73333,89.0000019 C121.73333,89.6600013 122.27333,90.2000008 122.933329,90.2000008 L128.933324,90.2000008 L128.933324,91 L122.933329,91 C121.83333,91 120.933331,90.1000009 120.933331,89.0000019 L120.933331,85.0000057 C120.933331,83.9000068 121.83333,83.0000076 122.933329,83.0000076 L128.933324,83.0000076 L128.933324,83.8000069 Z M131.866665,83.0000076 L132.666664,83.0000076 L132.666664,89.0000019 C132.666664,89.6600013 133.206664,90.2000008 133.866663,90.2000008 L139.866658,90.2000008 L139.866658,91 L133.866663,91 C132.766664,91 131.866665,90.1000009 131.866665,89.0000019 L131.866665,83.0000076 Z" id="INDUSTRY-Level" fill="#FFFFFF"></path>
            </g>
        </g>
    </g>
</svg>