
<svg width="290px" height="341px" viewBox="0 0 290 341" version="1.1" xmlns="http://www.w3.org/2000/svg" xmlns:xlink="http://www.w3.org/1999/xlink">
    <!-- Generator: Sketch 49.3 (51167) - http://www.bohemiancoding.com/sketch -->
    <desc>Created with Sketch.</desc>
    <defs>
        <circle id="path-1" cx="4" cy="51" r="4"></circle>
        <circle id="path-2" cx="4" cy="51" r="4"></circle>
        <circle id="path-3" cx="4" cy="51" r="4"></circle>
        <circle id="path-4" cx="4" cy="51" r="4"></circle>
        <rect id="path-5" x="17" y="87" width="221" height="221"></rect>
        <circle id="path-6" cx="4" cy="51" r="4"></circle>
        <linearGradient x1="12.957846%" y1="50%" x2="97.0047814%" y2="-40.5173522%" id="linearGradient-7">
            <stop stop-color="#CECECE" offset="0%"></stop>
            <stop stop-color="#000000" offset="100%"></stop>
        </linearGradient>
    </defs>
    <g id="Page-1" stroke="none" stroke-width="1" fill="none" fill-rule="evenodd">
        <g id="Tablet" transform="translate(-25.000000, -145.000000)">
            <g id="Group-4" transform="translate(26.000000, 145.000000)">
                <g id="Group-4-Copy-7" transform="translate(254.500000, 225.500000) scale(1, -1) translate(-254.500000, -225.500000) translate(220.000000, 198.000000)">
                    <g id="Oval-3-Copy">
                        <use fill-opacity="0.6622226" fill="#223569" fill-rule="evenodd" xlink:href="#path-1"></use>
                        <circle stroke="#47CCFF" stroke-width="1" cx="4" cy="51" r="3.5"></circle>
                    </g>
                    <polyline id="Line-3" stroke-opacity="0.41" stroke="#47CCFF" stroke-linecap="square" points="8 51 30.4695944 51 47.2463235 1.34837877e-13 69 1.54317934e-13"></polyline>
                </g>
                <g id="Group-4-Copy-8" transform="translate(254.500000, 253.500000) scale(1, -1) translate(-254.500000, -253.500000) translate(220.000000, 226.000000)">
                    <g id="Oval-3-Copy">
                        <use fill-opacity="0.6622226" fill="#223569" fill-rule="evenodd" xlink:href="#path-2"></use>
                        <circle stroke="#47CCFF" stroke-width="1" cx="4" cy="51" r="3.5"></circle>
                    </g>
                    <polyline id="Line-3" stroke-opacity="0.41" stroke="#47CCFF" stroke-linecap="square" points="8 51 30.4695944 51 47.2463235 1.34837877e-13 69 1.54317934e-13"></polyline>
                </g>
                <g id="Group-4-Copy-10" transform="translate(254.500000, 284.500000) scale(1, -1) translate(-254.500000, -284.500000) translate(220.000000, 257.000000)">
                    <g id="Oval-3-Copy">
                        <use fill-opacity="0.6622226" fill="#223569" fill-rule="evenodd" xlink:href="#path-3"></use>
                        <circle stroke="#47CCFF" stroke-width="1" cx="4" cy="51" r="3.5"></circle>
                    </g>
                    <polyline id="Line-3" stroke-opacity="0.41" stroke="#47CCFF" stroke-linecap="square" points="8 51 30.4695944 51 47.2463235 1.34837877e-13 69 1.54317934e-13"></polyline>
                </g>
                <g id="Group-4-Copy-9" transform="translate(254.500000, 312.500000) scale(1, -1) translate(-254.500000, -312.500000) translate(220.000000, 285.000000)">
                    <g id="Oval-3-Copy">
                        <use fill-opacity="0.6622226" fill="#223569" fill-rule="evenodd" xlink:href="#path-4"></use>
                        <circle stroke="#47CCFF" stroke-width="1" cx="4" cy="51" r="3.5"></circle>
                    </g>
                    <polyline id="Line-3" stroke-opacity="0.41" stroke="#47CCFF" stroke-linecap="square" points="8 51 30.4695944 51 47.2463235 1.34837877e-13 69 1.54317934e-13"></polyline>
                </g>
                <g id="Rectangle-12">
                    <use fill-opacity="0.351704031" fill="#223569" fill-rule="evenodd" xlink:href="#path-5"></use>
                    <rect stroke-opacity="0.412081069" stroke="#47CCFF" stroke-width="1" x="17.5" y="87.5" width="220" height="220"></rect>
                </g>
                <g id="Group-4-Copy-5" transform="translate(219.250000, 53.500000)">
                    <g id="Oval-3-Copy">
                        <use fill-opacity="0.6622226" fill="#223569" fill-rule="evenodd" xlink:href="#path-6"></use>
                        <circle stroke="#47CCFF" stroke-width="1" cx="4" cy="51" r="3.5"></circle>
                    </g>
                    <polyline id="Line-3" stroke-opacity="0.41" stroke="#47CCFF" stroke-linecap="square" points="8 51 30.309253 51 46.9662646 1.34837877e-13 68.5647084 1.54317934e-13"></polyline>
                </g>
                <g id="Group-7-Copy" transform="translate(43.750000, 55.000000) rotate(-90.000000) translate(-43.750000, -55.000000) translate(-10.750000, 11.500000)">
                    <g id="Group-4-Copy" transform="translate(0.000000, 41.000000)">
                        <circle id="Oval" stroke="#979797" stroke-width="3" cx="3.5" cy="42.5" r="3.5"></circle>
                        <polyline id="Line-3" stroke="url(#linearGradient-7)" stroke-linecap="square" points="7 43 44.3879317 43 72.3033088 1.13686838e-13 108.5 1.301112e-13"></polyline>
                    </g>
                    <g id="Group-4-Copy-2" transform="translate(0.000000, 21.000000)">
                        <circle id="Oval" stroke="#979797" stroke-width="3" cx="3.5" cy="42.5" r="3.5"></circle>
                        <polyline id="Line-3" stroke="url(#linearGradient-7)" stroke-linecap="square" points="7 43 44.3879317 43 72.3033088 1.13686838e-13 108.5 1.301112e-13"></polyline>
                    </g>
                    <g id="Group-4-Copy-3">
                        <circle id="Oval" stroke="#979797" stroke-width="3" cx="3.5" cy="42.5" r="3.5"></circle>
                        <polyline id="Line-3" stroke="url(#linearGradient-7)" stroke-linecap="square" points="7 43 44.3879317 43 72.3033088 1.13686838e-13 108.5 1.301112e-13"></polyline>
                    </g>
                </g>
                <path d="M40.7999992,228.000008 L41.5999985,228.000008 L41.5999985,230.940005 C41.5999985,231.200005 41.6599984,231.450004 41.8199983,231.630004 L44.7999954,235.240001 L47.7799926,231.630004 C47.9399924,231.440004 47.9999924,231.190005 47.9999924,230.940005 L47.9999924,228.000008 L48.7999916,228.000008 L48.7999916,230.940005 C48.7999916,231.350004 48.6899917,231.780004 48.439992,232.090004 L45.239995,236 L44.3599958,236 L41.1599989,232.090004 C40.9099991,231.780004 40.7999992,231.350004 40.7999992,230.940005 L40.7999992,228.000008 Z M51.7333332,236 L51.7333332,235.200001 L53.7333313,235.200001 L53.7333313,228.800007 L51.7333332,228.800007 L51.7333332,228.000008 L56.5333287,228.000008 L56.5333287,228.800007 L54.5333306,228.800007 L54.5333306,235.200001 L56.5333287,235.200001 L56.5333287,236 L51.7333332,236 Z M61.4666653,232.400003 C60.3666664,232.400003 59.4666672,231.500004 59.4666672,230.400005 L59.4666672,230.000006 C59.4666672,228.900007 60.3666664,228.000008 61.4666653,228.000008 L65.4666615,228.000008 C66.5666605,228.000008 67.4666596,228.900007 67.4666596,230.000006 L67.4666596,230.400005 L66.6666604,230.400005 L66.6666604,230.000006 C66.6666604,229.340006 66.1266609,228.800007 65.4666615,228.800007 L61.4666653,228.800007 C60.806666,228.800007 60.2666665,229.340006 60.2666665,230.000006 L60.2666665,230.400005 C60.2666665,231.060005 60.806666,231.600004 61.4666653,231.600004 L65.4666615,231.600004 C66.5666605,231.600004 67.4666596,232.500003 67.4666596,233.600002 L67.4666596,234.000002 C67.4666596,235.100001 66.5666605,236 65.4666615,236 L61.4666653,236 C60.3666664,236 59.4666672,235.100001 59.4666672,234.000002 L59.4666672,233.600002 L60.2666665,233.600002 L60.2666665,234.000002 C60.2666665,234.660001 60.806666,235.200001 61.4666653,235.200001 L65.4666615,235.200001 C66.1266609,235.200001 66.6666604,234.660001 66.6666604,234.000002 L66.6666604,233.600002 C66.6666604,232.940003 66.1266609,232.400003 65.4666615,232.400003 L61.4666653,232.400003 Z M71.2000005,228.000008 L71.2000005,234.000002 C71.2000005,234.660001 71.74,235.200001 72.3999993,235.200001 L76.3999955,235.200001 C77.0599949,235.200001 77.5999944,234.660001 77.5999944,234.000002 L77.5999944,228.000008 L78.3999936,228.000008 L78.3999936,234.000002 C78.3999936,235.100001 77.4999945,236 76.3999955,236 L72.3999993,236 C71.3000004,236 70.4000012,235.100001 70.4000012,234.000002 L70.4000012,228.000008 L71.2000005,228.000008 Z M81.3333352,236 L81.3333352,232.860003 C81.3333352,232.450003 81.4633351,232.040004 81.6933349,231.710004 L83.693333,228.850007 C84.0833326,228.300007 84.713332,228.000008 85.3333314,228.000008 C85.9533308,228.000008 86.5833302,228.300007 86.9733299,228.850007 L88.973328,231.710004 C89.2033277,232.030004 89.3333276,232.440003 89.3333276,232.860003 L89.3333276,236 L88.5333284,236 L88.5333284,233.600002 L82.1333345,233.600002 L82.1333345,236 L81.3333352,236 Z M85.3333314,228.800007 C84.7833319,228.800007 84.4633323,229.150007 84.3233324,229.350006 L82.3533343,232.170004 C82.2033344,232.380003 82.1433345,232.610003 82.1333345,232.800003 L88.5333284,232.800003 C88.5233284,232.610003 88.4633284,232.380003 88.3133286,232.170004 L86.3433305,229.350006 C86.2033306,229.160007 85.8833309,228.800007 85.3333314,228.800007 Z M92.2666692,228.000008 L93.0666685,228.000008 L93.0666685,234.000002 C93.0666685,234.660001 93.606668,235.200001 94.2666673,235.200001 L100.266662,235.200001 L100.266662,236 L94.2666673,236 C93.1666684,236 92.2666692,235.100001 92.2666692,234.000002 L92.2666692,228.000008 Z M40.7999992,250 L40.7999992,242.000008 L48.7999916,242.000008 L48.7999916,242.800007 L41.5999985,242.800007 L41.5999985,245.600004 L47.1999931,245.600004 L47.1999931,246.400003 L41.5999985,246.400003 L41.5999985,249.200001 L48.7999916,249.200001 L48.7999916,250 L40.7999992,250 Z M51.7333332,250 L51.7333332,242.000008 L59.7333256,242.000008 L59.7333256,242.800007 L52.5333325,242.800007 L52.5333325,245.600004 L58.1333271,245.600004 L58.1333271,246.400003 L52.5333325,246.400003 L52.5333325,250 L51.7333332,250 Z M62.6666672,250 L62.6666672,242.000008 L70.6666596,242.000008 L70.6666596,242.800007 L63.4666665,242.800007 L63.4666665,245.600004 L69.0666611,245.600004 L69.0666611,246.400003 L63.4666665,246.400003 L63.4666665,250 L62.6666672,250 Z M73.6000012,250 L73.6000012,242.000008 L81.5999936,242.000008 L81.5999936,242.800007 L74.4000005,242.800007 L74.4000005,245.600004 L79.9999951,245.600004 L79.9999951,246.400003 L74.4000005,246.400003 L74.4000005,249.200001 L81.5999936,249.200001 L81.5999936,250 L73.6000012,250 Z M92.5333276,242.000008 L92.5333276,242.800007 L86.5333333,242.800007 C85.873334,242.800007 85.3333345,243.340006 85.3333345,244.000006 L85.3333345,248.000002 C85.3333345,248.660001 85.873334,249.200001 86.5333333,249.200001 L92.5333276,249.200001 L92.5333276,250 L86.5333333,250 C85.4333344,250 84.5333352,249.100001 84.5333352,248.000002 L84.5333352,244.000006 C84.5333352,242.900007 85.4333344,242.000008 86.5333333,242.000008 L92.5333276,242.000008 Z M95.4666692,242.000008 L103.466662,242.000008 L103.466662,242.800007 L99.866665,242.800007 L99.866665,250 L99.0666658,250 L99.0666658,242.800007 L95.4666692,242.800007 L95.4666692,242.000008 Z M40.7999992,264 L40.7999992,256.000008 L41.5999985,256.000008 L41.5999985,263.200001 L48.7999916,263.200001 L48.7999916,264 L40.7999992,264 Z M51.7333332,264 L51.7333332,258.000006 C51.7333332,256.900007 52.6333324,256.000008 53.7333313,256.000008 L57.7333275,256.000008 C58.8333265,256.000008 59.7333256,256.900007 59.7333256,258.000006 L59.7333256,264 L58.9333264,264 L58.9333264,260.400003 L52.5333325,260.400003 L52.5333325,264 L51.7333332,264 Z M52.5333325,259.600004 L58.9333264,259.600004 L58.9333264,258.000006 C58.9333264,257.340006 58.3933269,256.800007 57.7333275,256.800007 L53.7333313,256.800007 C53.073332,256.800007 52.5333325,257.340006 52.5333325,258.000006 L52.5333325,259.600004 Z M62.6666672,264 L62.6666672,256.000008 L63.4666665,256.000008 L69.8666604,262.770001 L69.8666604,256.000008 L70.6666596,256.000008 L70.6666596,264 L69.8666604,264 L63.4666665,257.230006 L63.4666665,264 L62.6666672,264 Z M81.5999936,256.000008 L81.5999936,256.800007 L75.5999993,256.800007 C74.94,256.800007 74.4000005,257.340006 74.4000005,258.000006 L74.4000005,262.000002 C74.4000005,262.660001 74.94,263.200001 75.5999993,263.200001 L80.7999944,263.200001 L80.7999944,260.400003 L76.7999982,260.400003 L76.7999982,259.600004 L81.5999936,259.600004 L81.5999936,264 L75.5999993,264 C74.5000004,264 73.6000012,263.100001 73.6000012,262.000002 L73.6000012,258.000006 C73.6000012,256.900007 74.5000004,256.000008 75.5999993,256.000008 L81.5999936,256.000008 Z M84.5333352,256.000008 L85.3333345,256.000008 L85.3333345,262.000002 C85.3333345,262.660001 85.873334,263.200001 86.5333333,263.200001 L90.5333295,263.200001 C91.1933289,263.200001 91.7333284,262.660001 91.7333284,262.000002 L91.7333284,256.000008 L92.5333276,256.000008 L92.5333276,262.000002 C92.5333276,263.100001 91.6333285,264 90.5333295,264 L86.5333333,264 C85.4333344,264 84.5333352,263.100001 84.5333352,262.000002 L84.5333352,256.000008 Z M95.4666692,264 L95.4666692,258.000006 C95.4666692,256.900007 96.3666684,256.000008 97.4666673,256.000008 L101.466664,256.000008 C102.566662,256.000008 103.466662,256.900007 103.466662,258.000006 L103.466662,264 L102.666662,264 L102.666662,260.400003 L96.2666685,260.400003 L96.2666685,264 L95.4666692,264 Z M96.2666685,259.600004 L102.666662,259.600004 L102.666662,258.000006 C102.666662,257.340006 102.126663,256.800007 101.466664,256.800007 L97.4666673,256.800007 C96.806668,256.800007 96.2666685,257.340006 96.2666685,258.000006 L96.2666685,259.600004 Z M114.399996,256.000008 L114.399996,256.800007 L108.400001,256.800007 C107.740002,256.800007 107.200002,257.340006 107.200002,258.000006 L107.200002,262.000002 C107.200002,262.660001 107.740002,263.200001 108.400001,263.200001 L113.599996,263.200001 L113.599996,260.400003 L109.6,260.400003 L109.6,259.600004 L114.399996,259.600004 L114.399996,264 L108.400001,264 C107.300002,264 106.400003,263.100001 106.400003,262.000002 L106.400003,258.000006 C106.400003,256.900007 107.300002,256.000008 108.400001,256.000008 L114.399996,256.000008 Z M117.333337,264 L117.333337,256.000008 L125.33333,256.000008 L125.33333,256.800007 L118.133336,256.800007 L118.133336,259.600004 L123.733331,259.600004 L123.733331,260.400003 L118.133336,260.400003 L118.133336,263.200001 L125.33333,263.200001 L125.33333,264 L117.333337,264 Z M40.7999992,278 L40.7999992,272.000006 C40.7999992,270.900007 41.6999984,270.000008 42.7999973,270.000008 L46.7999935,270.000008 C47.8999925,270.000008 48.7999916,270.900007 48.7999916,272.000006 L48.7999916,278 L47.9999924,278 L47.9999924,274.400003 L41.5999985,274.400003 L41.5999985,278 L40.7999992,278 Z M41.5999985,273.600004 L47.9999924,273.600004 L47.9999924,272.000006 C47.9999924,271.340006 47.4599929,270.800007 46.7999935,270.800007 L42.7999973,270.800007 C42.139998,270.800007 41.5999985,271.340006 41.5999985,272.000006 L41.5999985,273.600004 Z M59.7333256,270.000008 L59.7333256,270.800007 L53.7333313,270.800007 C53.073332,270.800007 52.5333325,271.340006 52.5333325,272.000006 L52.5333325,276.000002 C52.5333325,276.660001 53.073332,277.200001 53.7333313,277.200001 L59.7333256,277.200001 L59.7333256,278 L53.7333313,278 C52.6333324,278 51.7333332,277.100001 51.7333332,276.000002 L51.7333332,272.000006 C51.7333332,270.900007 52.6333324,270.000008 53.7333313,270.000008 L59.7333256,270.000008 Z M62.6666672,278 L62.6666672,272.000006 C62.6666672,270.900007 63.5666664,270.000008 64.6666653,270.000008 L68.6666615,270.000008 C69.7666605,270.000008 70.6666596,270.900007 70.6666596,272.000006 L70.6666596,278 L69.8666604,278 L69.8666604,274.400003 L63.4666665,274.400003 L63.4666665,278 L62.6666672,278 Z M63.4666665,273.600004 L69.8666604,273.600004 L69.8666604,272.000006 C69.8666604,271.340006 69.3266609,270.800007 68.6666615,270.800007 L64.6666653,270.800007 C64.006666,270.800007 63.4666665,271.340006 63.4666665,272.000006 L63.4666665,273.600004 Z M73.6000012,278 L73.6000012,270.000008 L79.5999955,270.000008 C80.6999945,270.000008 81.5999936,270.900007 81.5999936,272.000006 L81.5999936,276.000002 C81.5999936,277.100001 80.6999945,278 79.5999955,278 L73.6000012,278 Z M74.4000005,277.200001 L79.5999955,277.200001 C80.2599949,277.200001 80.7999944,276.660001 80.7999944,276.000002 L80.7999944,272.000006 C80.7999944,271.340006 80.2599949,270.800007 79.5999955,270.800007 L74.4000005,270.800007 L74.4000005,277.200001 Z M84.5333352,278 L84.5333352,270.000008 L92.5333276,270.000008 L92.5333276,270.800007 L85.3333345,270.800007 L85.3333345,273.600004 L90.9333291,273.600004 L90.9333291,274.400003 L85.3333345,274.400003 L85.3333345,277.200001 L92.5333276,277.200001 L92.5333276,278 L84.5333352,278 Z M95.4666692,278 L95.4666692,270.000008 L96.2666685,270.000008 L99.4666654,274.140004 L102.666662,270.000008 L103.466662,270.000008 L103.466662,278 L102.666662,278 L102.666662,271.580006 L99.8466651,275.070003 L99.0866658,275.070003 L96.2666685,271.580006 L96.2666685,278 L95.4666692,278 Z M106.400003,270.000008 L107.200002,270.000008 L107.200002,271.200006 C107.200002,271.680006 107.500002,272.110006 107.930002,272.290005 L110.399999,273.710004 L112.869997,272.290005 C113.299997,272.110006 113.599996,271.680006 113.599996,271.200006 L113.599996,270.000008 L114.399996,270.000008 L114.399996,271.200006 C114.399996,272.030006 113.889996,272.630005 113.379997,272.910005 L110.799999,274.420003 L110.799999,278 L110,278 L110,274.420003 L107.420002,272.910005 C106.910003,272.630005 106.400003,272.030006 106.400003,271.200006 L106.400003,270.000008 Z" id="Visual-EFFECT-LANGUA" fill="#FFFFFF"></path>
            </g>
        </g>
    </g>
</svg>