
<svg width="292px" height="23px" viewBox="0 0 292 23" version="1.1" xmlns="http://www.w3.org/2000/svg" xmlns:xlink="http://www.w3.org/1999/xlink">
    <!-- Generator: Sketch 49.3 (51167) - http://www.bohemiancoding.com/sketch -->
    <desc>Created with Sketch.</desc>
    <defs>
        <polygon id="path-1" points="269.276953 23.9955258 292 1 0 1 22.7274685 24"></polygon>
    </defs>
    <g id="Page-1" stroke="none" stroke-width="1" fill="none" fill-rule="evenodd">
        <g id="Tablet" transform="translate(-238.000000, -15.000000)">
            <g id="Group-6" transform="translate(238.000000, 14.000000)">
                <g id="Group-11-Copy-4">
                    <g id="Path-2">
                        <use fill-opacity="0.351704031" fill="#223569" fill-rule="evenodd" xlink:href="#path-1"></use>
                        <path stroke-opacity="0.412081069" stroke="#47CCFF" stroke-width="1" d="M269.068094,23.4955296 L290.802995,1.5 L1.19700535,1.5 L22.9363193,23.4999962 L269.068094,23.4955296 Z"></path>
                    </g>
                    <path d="M184.567568,23.5 L246.5,23.5" id="Line-4" stroke="#47CCFF" stroke-linecap="square"></path>
                    <path d="M33.5740741,1.5 L63.4259259,1.5" id="Line-4-Copy" stroke="#47CCFF" stroke-linecap="square"></path>
                </g>
                <path d="M61.0333265,9.00000763 L61.8333258,9.00000763 L61.8333258,15.4200015 L64.6533231,11.9300048 L65.4133224,11.9300048 L68.2333197,15.4200015 L68.2333197,9.00000763 L69.0333189,9.00000763 L69.0333189,17 L68.2333197,17 L65.0333227,12.8600039 L61.8333258,17 L61.0333265,17 L61.0333265,9.00000763 Z M79.9666529,9.80000687 L73.9666586,9.80000687 C73.3066592,9.80000687 72.7666597,10.3400064 72.7666597,11.0000057 L72.7666597,12.6000042 L78.3666544,12.6000042 L78.3666544,13.4000034 L72.7666597,13.4000034 L72.7666597,15.0000019 C72.7666597,15.6600013 73.3066592,16.2000008 73.9666586,16.2000008 L79.9666529,16.2000008 L79.9666529,17 L73.9666586,17 C72.8666596,17 71.9666605,16.1000009 71.9666605,15.0000019 L71.9666605,11.0000057 C71.9666605,9.90000677 72.8666596,9.00000763 73.9666586,9.00000763 L79.9666529,9.00000763 L79.9666529,9.80000687 Z M82.8999945,9.00000763 L83.6999937,9.00000763 L83.6999937,15.0000019 C83.6999937,15.6600013 84.2399932,16.2000008 84.8999926,16.2000008 L90.8999868,16.2000008 L90.8999868,17 L84.8999926,17 C83.7999936,17 82.8999945,16.1000009 82.8999945,15.0000019 L82.8999945,9.00000763 Z M101.833321,11.4000053 L101.033322,11.4000053 L101.033322,11.0000057 C101.033322,10.3400064 100.493322,9.80000687 99.8333227,9.80000687 L95.8333265,9.80000687 C95.1733272,9.80000687 94.6333277,10.3400064 94.6333277,11.0000057 L94.6333277,15.0000019 C94.6333277,15.6600013 95.1733272,16.2000008 95.8333265,16.2000008 L99.8333227,16.2000008 C100.493322,16.2000008 101.033322,15.6600013 101.033322,15.0000019 L101.033322,14.6000023 L101.833321,14.6000023 L101.833321,15.0000019 C101.833321,16.1000009 100.933322,17 99.8333227,17 L95.8333265,17 C94.7333276,17 93.8333284,16.1000009 93.8333284,15.0000019 L93.8333284,11.0000057 C93.8333284,9.90000677 94.7333276,9.00000763 95.8333265,9.00000763 L99.8333227,9.00000763 C100.933322,9.00000763 101.833321,9.90000677 101.833321,11.0000057 L101.833321,11.4000053 Z M112.766655,11.0000057 L112.766655,15.0000019 C112.766655,16.1000009 111.866656,17 110.766657,17 L106.76666,17 C105.666662,17 104.766662,16.1000009 104.766662,15.0000019 L104.766662,11.0000057 C104.766662,9.90000677 105.666662,9.00000763 106.76666,9.00000763 L110.766657,9.00000763 C111.866656,9.00000763 112.766655,9.90000677 112.766655,11.0000057 Z M106.76666,16.2000008 L110.766657,16.2000008 C111.426656,16.2000008 111.966656,15.6600013 111.966656,15.0000019 L111.966656,11.0000057 C111.966656,10.3400064 111.426656,9.80000687 110.766657,9.80000687 L106.76666,9.80000687 C106.106661,9.80000687 105.566662,10.3400064 105.566662,11.0000057 L105.566662,15.0000019 C105.566662,15.6600013 106.106661,16.2000008 106.76666,16.2000008 Z M115.699996,17 L115.699996,9.00000763 L116.499996,9.00000763 L119.699993,13.1400037 L122.89999,9.00000763 L123.699989,9.00000763 L123.699989,17 L122.89999,17 L122.89999,10.5800061 L120.079992,14.0700028 L119.319993,14.0700028 L116.499996,10.5800061 L116.499996,17 L115.699996,17 Z M134.633323,9.80000687 L128.633328,9.80000687 C127.973329,9.80000687 127.43333,10.3400064 127.43333,11.0000057 L127.43333,12.6000042 L133.033324,12.6000042 L133.033324,13.4000034 L127.43333,13.4000034 L127.43333,15.0000019 C127.43333,15.6600013 127.973329,16.2000008 128.633328,16.2000008 L134.633323,16.2000008 L134.633323,17 L128.633328,17 C127.533329,17 126.63333,16.1000009 126.63333,15.0000019 L126.63333,11.0000057 C126.63333,9.90000677 127.533329,9.00000763 128.633328,9.00000763 L134.633323,9.00000763 L134.633323,9.80000687 Z M143.699998,9.00000763 L151.699991,9.00000763 L151.699991,9.80000687 L148.099994,9.80000687 L148.099994,17 L147.299995,17 L147.299995,9.80000687 L143.699998,9.80000687 L143.699998,9.00000763 Z M154.633332,15.0000019 L154.633332,11.0000057 C154.633332,9.90000677 155.533331,9.00000763 156.63333,9.00000763 L160.633327,9.00000763 C161.733325,9.00000763 162.633325,9.90000677 162.633325,11.0000057 L162.633325,15.0000019 C162.633325,16.1000009 161.733325,17 160.633327,17 L156.63333,17 C155.533331,17 154.633332,16.1000009 154.633332,15.0000019 Z M156.63333,16.2000008 L160.633327,16.2000008 C161.293326,16.2000008 161.833325,15.6600013 161.833325,15.0000019 L161.833325,11.0000057 C161.833325,10.3400064 161.293326,9.80000687 160.633327,9.80000687 L156.63333,9.80000687 C155.973331,9.80000687 155.433331,10.3400064 155.433331,11.0000057 L155.433331,15.0000019 C155.433331,15.6600013 155.973331,16.2000008 156.63333,16.2000008 Z M171.7,9.00000763 L172.499999,9.00000763 L172.499999,11.9400048 C172.499999,12.2000046 172.559999,12.4500043 172.719999,12.6300042 L175.699996,16.2400007 L178.679994,12.6300042 C178.839993,12.4400043 178.899993,12.1900046 178.899993,11.9400048 L178.899993,9.00000763 L179.699993,9.00000763 L179.699993,11.9400048 C179.699993,12.3500044 179.589993,12.780004 179.339993,13.0900037 L176.139996,17 L175.259997,17 L172.06,13.0900037 C171.81,12.780004 171.7,12.3500044 171.7,11.9400048 L171.7,9.00000763 Z M183.033334,17 L183.033334,15.8300011 L183.833333,15.8300011 L183.833333,17 L183.033334,17 Z M187.166668,17 L187.166668,9.00000763 L195.16666,9.00000763 L195.16666,9.80000687 L187.966667,9.80000687 L187.966667,12.6000042 L193.566662,12.6000042 L193.566662,13.4000034 L187.966667,13.4000034 L187.966667,16.2000008 L195.16666,16.2000008 L195.16666,17 L187.166668,17 Z M198.500002,17 L198.500002,15.8300011 L199.300001,15.8300011 L199.300001,17 L198.500002,17 Z M202.633336,17 L202.633336,9.00000763 L203.433335,9.00000763 L203.433335,16.2000008 L210.633328,16.2000008 L210.633328,17 L202.633336,17 Z M213.96667,17 L213.96667,15.8300011 L214.766669,15.8300011 L214.766669,17 L213.96667,17 Z M218.100004,17 L218.100004,11.0000057 C218.100004,9.90000677 219.000003,9.00000763 220.100002,9.00000763 L224.099998,9.00000763 C225.199997,9.00000763 226.099996,9.90000677 226.099996,11.0000057 L226.099996,17 L225.299997,17 L225.299997,13.4000034 L218.900003,13.4000034 L218.900003,17 L218.100004,17 Z M218.900003,12.6000042 L225.299997,12.6000042 L225.299997,11.0000057 C225.299997,10.3400064 224.759998,9.80000687 224.099998,9.80000687 L220.100002,9.80000687 C219.440003,9.80000687 218.900003,10.3400064 218.900003,11.0000057 L218.900003,12.6000042 Z M229.433338,17 L229.433338,15.8300011 L230.233337,15.8300011 L230.233337,17 L229.433338,17 Z" id="welcome-TO-V.E.L.A." fill="#FFFFFF"></path>
            </g>
        </g>
    </g>
</svg>